<?xml version="1.0" standalone="no"?>
<!DOCTYPE svg PUBLIC "-//W3C//DTD SVG 1.1//EN" "http://www.w3.org/Graphics/SVG/1.1/DTD/svg11.dtd" >
<svg xmlns="http://www.w3.org/2000/svg" xmlns:xlink="http://www.w3.org/1999/xlink" version="1.1">
<metadata></metadata>
<defs>
<font id="geomanistblack" horiz-adv-x="577" >
<font-face units-per-em="2048" ascent="1536" descent="-512" />
<missing-glyph horiz-adv-x="409" />
<glyph unicode="&#x2e;&#x2e;&#x2e;" horiz-adv-x="1839" d="M53 199q0 96 66.5 162.5t165.5 66.5t165 -66.5t66 -162.5q0 -93 -66 -159.5t-165 -66.5t-165.5 66.5t-66.5 159.5zM688 199q0 96 66.5 162.5t165.5 66.5t165 -66.5t66 -162.5q0 -93 -66.5 -159.5t-164.5 -66.5q-99 0 -165.5 66.5t-66.5 159.5zM1323 199q0 96 66 162.5 t165 66.5t165.5 -66.5t66.5 -162.5q0 -93 -66.5 -159.5t-165.5 -66.5q-98 0 -164.5 66.5t-66.5 159.5z" />
<glyph unicode=" "  horiz-adv-x="409" />
<glyph unicode="&#x09;" horiz-adv-x="409" />
<glyph unicode="&#xa0;" horiz-adv-x="409" />
<glyph unicode="!" horiz-adv-x="671" d="M104 199q0 96 66.5 162.5t165.5 66.5t165 -66.5t66 -162.5q0 -93 -66.5 -159.5t-164.5 -66.5q-99 0 -165.5 66.5t-66.5 159.5zM125 1434h422l-31 -969h-360z" />
<glyph unicode="&#x22;" horiz-adv-x="911" d="M82 1434h313l-10 -560h-293zM518 1434h313l-10 -560h-293z" />
<glyph unicode="#" horiz-adv-x="1396" d="M45 338l59 287h172l37 182h-170l60 287h172l71 340h326l-72 -340h166l74 340h326l-74 -340h160l-60 -287h-159l-39 -182h159l-59 -287h-160l-71 -338h-326l72 338h-168l-72 -338h-326l72 338h-170zM602 625h166l39 182h-170z" />
<glyph unicode="$" horiz-adv-x="1118" d="M25 322l340 167q32 -59 87 -100t109 -41q45 0 67.5 17.5t22.5 46.5q0 26 -25 49.5t-66 42t-93.5 43.5t-107 51t-107 66t-93.5 87t-66 116t-25 151q0 177 104.5 291.5t286.5 142.5v117h229v-121q67 -14 125 -45t96 -66.5t69 -79.5t47 -77.5t28 -67.5l-338 -151 q-15 31 -25 47t-29.5 39t-46 34t-61.5 11q-36 0 -57 -18t-21 -48q0 -28 25.5 -53.5t66.5 -44.5t94 -43.5t108 -48.5t108 -61.5t94 -81.5t66.5 -109t25.5 -142q0 -176 -98 -297.5t-277 -156.5v-164h-229v153q-78 14 -146.5 45.5t-114.5 68t-83 81t-57 80.5t-33 70z" />
<glyph unicode="%" horiz-adv-x="1769" d="M35 1096q0 153 110 258.5t273 105.5q169 0 279 -105t110 -259q0 -156 -109.5 -259.5t-277.5 -103.5t-276.5 103t-108.5 260zM145 0l1100 1434h379l-1100 -1434h-379zM326 1098q0 -41 27.5 -69t66.5 -28q44 0 70 28t26 69q0 37 -26.5 63.5t-67.5 26.5q-43 0 -69.5 -26.5 t-26.5 -63.5zM958 336q0 153 110 258.5t275 105.5q167 0 278.5 -105.5t111.5 -258.5q0 -154 -110.5 -258.5t-276.5 -104.5q-168 0 -278 103.5t-110 259.5zM1251 338q0 -40 26 -67t66 -27q43 0 71 27.5t28 66.5q0 38 -28 65t-68 27q-43 0 -69 -27t-26 -65z" />
<glyph unicode="&#x26;" horiz-adv-x="1421" d="M37 440q0 230 235 398q-86 122 -86 241q0 171 123.5 276t325.5 105q216 0 336.5 -109.5t120.5 -281.5q0 -219 -213 -362l98 -97q12 34 12 78h369q0 -196 -115 -360l139 -152l-260 -239l-143 147q-66 -48 -162 -79.5t-209 -31.5q-259 0 -415 132t-156 335zM440 467 q0 -68 49 -106.5t115 -38.5q75 0 119 34l-221 232q-62 -46 -62 -121zM545 1057q0 -70 104 -150q94 72 94 150q0 41 -28 67.5t-76 26.5q-40 0 -67 -27t-27 -67z" />
<glyph unicode="'" horiz-adv-x="477" d="M82 1434h313l-10 -560h-293z" />
<glyph unicode="(" horiz-adv-x="753" d="M55 102v1100q0 245 158.5 375.5t421.5 130.5v-336q-189 0 -189 -170v-1100q0 -170 189 -170v-335q-129 0 -234.5 32t-183 94t-120 158.5t-42.5 220.5z" />
<glyph unicode=")" horiz-adv-x="755" d="M119 -68q188 0 188 170v1100q0 170 -188 170v336q263 0 421 -130.5t158 -375.5v-1100q0 -245 -158 -375t-421 -130v335z" />
<glyph unicode="*" horiz-adv-x="917" d="M49 971l154 80l-154 77l131 213l152 -77v170h258v-170l149 77l127 -213l-147 -79l149 -76l-129 -215l-149 82v-174h-258v172l-152 -80z" />
<glyph unicode="+" horiz-adv-x="1150" d="M70 485v308h340v354h327v-354h342v-308h-342v-356h-327v356h-340z" />
<glyph unicode="," horiz-adv-x="571" d="M53 199q0 96 67 162.5t165 66.5q101 0 168 -65t67 -183q0 -167 -80 -316t-215 -237l-151 168q51 33 98.5 86t60.5 96q-86 21 -133 84t-47 138z" />
<glyph unicode="-" horiz-adv-x="829" d="M100 455v348h627v-348h-627z" />
<glyph unicode="." horiz-adv-x="571" d="M53 199q0 96 66.5 162.5t165.5 66.5t165 -66.5t66 -162.5q0 -93 -66 -159.5t-165 -66.5t-165.5 66.5t-66.5 159.5z" />
<glyph unicode="/" horiz-adv-x="997" d="M20 -221l615 1757h342l-615 -1757h-342z" />
<glyph unicode="0" horiz-adv-x="1245" d="M90 717q0 380 129 561.5t404 181.5q274 0 403 -181.5t129 -561.5q0 -381 -129 -562.5t-403 -181.5q-276 0 -404.5 181.5t-128.5 562.5zM502 717q0 -207 26.5 -289t94.5 -82t94 81t26 290t-25.5 289.5t-94.5 80.5q-68 0 -94.5 -81.5t-26.5 -288.5z" />
<glyph unicode="1" horiz-adv-x="768" d="M14 1339l295 95h334v-1434h-403v1044l-134 -36z" />
<glyph unicode="2" horiz-adv-x="1187" d="M70 1077q13 52 37 101.5t67 102t98.5 91t137.5 63.5t178 25q146 0 261 -51t184 -155t69 -246q0 -67 -25 -130.5t-66 -114.5t-91.5 -98.5t-105 -90t-102 -80.5t-86.5 -77.5t-55 -74.5h543v-342h-1030v131q0 87 33.5 171.5t86.5 152t117.5 130.5t129 117.5t117.5 103 t86.5 96.5t33.5 89q0 46 -32 74.5t-87 28.5q-54 0 -91.5 -32.5t-55.5 -86.5z" />
<glyph unicode="3" horiz-adv-x="1159" d="M66 362l352 101q18 -55 56.5 -89t90.5 -34q58 0 92.5 34t34.5 85q0 46 -34.5 80t-100.5 34h-217v301l227 213h-438v347h907v-342l-233 -197q63 -15 115 -44.5t95 -78.5t67 -125t24 -172q0 -224 -147.5 -363t-378.5 -139q-98 0 -180.5 25.5t-137 65t-96.5 93t-64 103.5 t-34 102z" />
<glyph unicode="4" horiz-adv-x="1280" d="M47 307v281l545 846h481v-791h158v-336h-158v-307h-397v307h-629zM459 643h217v373z" />
<glyph unicode="5" horiz-adv-x="1165" d="M66 362l352 101q13 -60 55 -91.5t100 -31.5q60 0 103 39t43 104q0 60 -39 102t-111 42q-83 0 -133 -70l-327 61l28 816h897v-347h-534l-8 -159q81 33 172 33q126 0 232 -59.5t170 -170t64 -248.5q0 -143 -70 -260t-192.5 -183.5t-271.5 -66.5q-99 0 -183.5 25.5 t-141.5 65t-101 92.5t-68 103.5t-36 102.5z" />
<glyph unicode="6" horiz-adv-x="1204" d="M68 645q0 86 8.5 166t29.5 163t53.5 153t83.5 132.5t117 106t156.5 69t198.5 25.5q203 0 356 -86l-151 -327q-78 38 -177 38q-110 0 -166.5 -49t-72.5 -121q1 0 15.5 6.5t21.5 9t23.5 9t30 9.5t32 7t39 5.5t41.5 1.5q90 0 166 -26.5t136 -81t94 -147t34 -214.5 q0 -226 -146 -373.5t-375 -147.5q-126 0 -221 31t-157 87t-100.5 141t-54 185t-15.5 228zM481 588q0 -40 1 -62t4.5 -55t12 -51.5t23 -37.5t38.5 -27.5t56 -8.5q63 0 92 35.5t29 95.5q0 68 -33.5 108t-95.5 40q-63 0 -127 -37z" />
<glyph unicode="7" horiz-adv-x="1118" d="M43 1087v347h1026v-279l-444 -1155h-441l432 1087h-573z" />
<glyph unicode="8" horiz-adv-x="1208" d="M59 440q0 103 43.5 187.5t114.5 130.5q-55 43 -90 114t-35 160q0 186 137 307t373 121t373 -121t137 -307q0 -89 -35 -160t-90 -114q71 -46 114.5 -130.5t43.5 -187.5q0 -218 -144.5 -342.5t-398.5 -124.5t-398.5 124.5t-144.5 342.5zM475 449q0 -54 33.5 -83.5 t93.5 -29.5t93.5 29.5t33.5 83.5q0 46 -32 80t-95 34t-95 -34t-32 -80zM494 1006q0 -101 108 -101q109 0 109 101q0 45 -27.5 71.5t-81.5 26.5t-81 -26.5t-27 -71.5z" />
<glyph unicode="9" horiz-adv-x="1204" d="M68 940q0 226 145.5 373t374.5 147q126 0 221 -31t157 -87t100.5 -141t54.5 -185t16 -228q0 -123 -17 -232.5t-62.5 -219t-116 -187.5t-186.5 -127t-266 -49q-203 0 -356 86l152 328q80 -39 176 -39q110 0 166.5 49t72.5 121q-2 -1 -13.5 -6t-17.5 -7.5t-20 -7.5t-24 -8 t-26 -7t-30.5 -6t-33 -3.5t-37.5 -1.5q-90 0 -166 26.5t-136 81t-94 147t-34 214.5zM467 956q0 -67 33.5 -107t95.5 -40q63 0 127 37q0 40 -1 62t-4.5 55t-12 51t-23 37t-38.5 27.5t-56 8.5q-63 0 -92 -35.5t-29 -95.5z" />
<glyph unicode=":" horiz-adv-x="571" d="M53 199q0 96 66.5 162.5t165.5 66.5t165 -66.5t66 -162.5q0 -93 -66 -159.5t-165 -66.5t-165.5 66.5t-66.5 159.5zM53 866q0 96 66.5 163t165.5 67t165 -67t66 -163q0 -93 -66 -159t-165 -66t-165.5 66t-66.5 159z" />
<glyph unicode=";" horiz-adv-x="571" d="M53 199q0 96 67 162.5t165 66.5q101 0 168 -65t67 -183q0 -167 -80 -316t-215 -237l-151 168q51 33 98.5 86t60.5 96q-86 21 -133 84t-47 138zM53 866q0 96 66.5 163t165.5 67t165 -67t66 -163q0 -93 -66 -159t-165 -66t-165.5 66t-66.5 159z" />
<glyph unicode="&#x3c;" horiz-adv-x="1089" d="M98 504v272l893 393v-331l-530 -197l530 -197v-333z" />
<glyph unicode="=" horiz-adv-x="1150" d="M72 262v305h1009v-305h-1009zM72 692v305h1009v-305h-1009z" />
<glyph unicode="&#x3e;" horiz-adv-x="1089" d="M98 111v333l531 197l-531 197v331l893 -393v-272z" />
<glyph unicode="?" horiz-adv-x="1036" d="M41 1151q14 41 34.5 78.5t59 81t88 75.5t124.5 53t165 21q210 0 346.5 -113t136.5 -296q0 -57 -18 -108t-47 -88.5t-63.5 -71.5t-69.5 -64t-64 -59t-47 -63t-18 -69v-63h-383v90q0 56 17 105.5t44 85.5t59.5 67.5t65.5 57.5t60 50t44 50t17 53q0 37 -27.5 64.5 t-81.5 27.5q-90 0 -131 -102zM242 199q0 96 66 162.5t165 66.5t165.5 -66.5t66.5 -162.5q0 -93 -66.5 -159.5t-165.5 -66.5t-165 66.5t-66 159.5z" />
<glyph unicode="@" horiz-adv-x="1916" d="M68 530q0 152 46 287t129.5 238t196.5 177.5t251 113t288 38.5q198 0 363.5 -58t276 -158.5t171.5 -236.5t61 -292q0 -229 -114 -369.5t-307 -140.5q-85 0 -155.5 33t-107.5 90q-32 -49 -97.5 -87t-162.5 -38q-172 0 -275.5 113.5t-103.5 289.5t100 290t267 114 q65 0 114.5 -21t71.5 -43v52h287v-453q0 -100 86 -100q59 0 92 69.5t33 186.5q0 244 -161 382t-445 138q-140 0 -256.5 -45.5t-196.5 -126t-124 -191.5t-44 -241q0 -277 171.5 -436.5t467.5 -159.5q117 0 227 27.5t185 78.5l125 -196q-230 -152 -537 -152q-277 0 -487 103.5 t-323 291t-113 432.5zM834 532q0 -61 35 -102t92 -41q56 0 91 39.5t35 103.5q0 55 -34 97.5t-90 42.5q-54 0 -91.5 -40t-37.5 -100z" />
<glyph unicode="A" horiz-adv-x="1437" d="M8 0l496 1434h430l496 -1434h-410l-86 274h-430l-86 -274h-410zM600 600h238l-119 412z" />
<glyph unicode="B" horiz-adv-x="1249" d="M119 0v1434h555q228 0 356.5 -102t128.5 -288q0 -188 -153 -292q100 -44 149 -127t49 -191q0 -110 -40.5 -194.5t-112.5 -136t-164.5 -77.5t-202.5 -26h-565zM524 342h146q52 0 84 36t32 81q0 46 -29.5 80t-80.5 34h-152v-231zM524 891h119q48 0 74 29t26 75 q0 45 -26.5 72t-77.5 27h-115v-203z" />
<glyph unicode="C" horiz-adv-x="1300" d="M47 719q0 154 55 289.5t154 235.5t243.5 158t315.5 58q125 0 239 -33.5t195 -89.5l-112 -356q-131 106 -301 106q-161 0 -262 -104.5t-101 -263.5q0 -162 101 -267.5t262 -105.5q169 0 301 107l112 -357q-81 -56 -195 -89.5t-239 -33.5q-227 0 -403.5 100t-270.5 269 t-94 377z" />
<glyph unicode="D" horiz-adv-x="1400" d="M119 0v1434h467q230 0 402.5 -85t268 -248t95.5 -384q0 -330 -208 -523.5t-558 -193.5h-467zM526 344h52q161 0 255.5 96t94.5 277q0 184 -94 278.5t-256 94.5h-52v-746z" />
<glyph unicode="E" horiz-adv-x="1019" d="M119 0v1434h803v-357h-396v-176h334v-354h-334v-191h412v-356h-819z" />
<glyph unicode="F" horiz-adv-x="987" d="M119 0v1434h796v-357h-389v-200h338v-355h-338v-522h-407z" />
<glyph unicode="G" horiz-adv-x="1570" d="M47 719q0 154 55 289.5t154 235.5t243.5 158t315.5 58q95 0 183 -18.5t150.5 -45.5t118 -64.5t88.5 -68t60 -63.5l-258 -262q-25 29 -49 50t-63 46.5t-92.5 39t-116.5 13.5q-161 0 -262 -104.5t-101 -263.5q0 -161 105 -267t272 -106q106 0 174 21t100 47v80h-231v333 h604v-630q-60 -41 -98 -65t-106.5 -58.5t-131.5 -53.5t-154 -33t-192 -14q-227 0 -403.5 100t-270.5 269t-94 377z" />
<glyph unicode="H" horiz-adv-x="1507" d="M119 0v1434h407v-539h455v539h408v-1434h-408v537h-455v-537h-407z" />
<glyph unicode="I" horiz-adv-x="645" d="M119 0v1434h407v-1434h-407z" />
<glyph unicode="J" horiz-adv-x="837" d="M37 10l49 352q58 -8 107 -8q59 0 87.5 32.5t28.5 76.5v971h408v-1049q0 -89 -24 -158t-64.5 -113.5t-99 -73t-123.5 -40.5t-142 -12q-140 0 -227 22z" />
<glyph unicode="K" horiz-adv-x="1378" d="M119 0v1434h407v-574l373 574h453l-478 -686l494 -748h-465l-377 586v-586h-407z" />
<glyph unicode="L" horiz-adv-x="960" d="M119 0v1434h407v-1078h412v-356h-819z" />
<glyph unicode="M" horiz-adv-x="1939" d="M119 0v1434h530l320 -852l323 852h529v-1434h-389v872l-277 -759h-371l-274 759v-872h-391z" />
<glyph unicode="N" horiz-adv-x="1515" d="M119 0v1434h416l460 -813v813h402v-1434h-406l-473 801v-801h-399z" />
<glyph unicode="O" horiz-adv-x="1642" d="M47 719q0 155 55 290.5t154 235.5t245 157.5t320 57.5t320 -57.5t245 -157.5t154 -235.5t55 -290.5q0 -157 -55 -293.5t-154 -237t-245 -158t-320 -57.5t-320 57.5t-245 158t-154 237t-55 293.5zM473 719q0 -163 96.5 -268t251.5 -105t251.5 105t96.5 268 q0 159 -96.5 263.5t-251.5 104.5t-251.5 -104.5t-96.5 -263.5z" />
<glyph unicode="P" horiz-adv-x="1196" d="M119 0v1434h559q226 0 354.5 -129.5t128.5 -348.5q0 -214 -131 -347.5t-346 -133.5h-158v-475h-407zM526 817h86q63 0 97 39t34 102q0 59 -34.5 96.5t-92.5 37.5h-90v-275z" />
<glyph unicode="Q" horiz-adv-x="1644" d="M47 719q0 155 55 290.5t154 235.5t245 157.5t320 57.5t320 -57.5t245 -157.5t154 -235.5t55 -290.5q0 -205 -92 -375l125 -104l-239 -275l-140 117q-182 -109 -428 -109q-174 0 -320 57.5t-245 158t-154 237t-55 293.5zM473 719q0 -163 96.5 -268t251.5 -105q70 0 105 14 l-111 97l234 270l110 -96q10 38 10 88q0 159 -96.5 263.5t-251.5 104.5t-251.5 -104.5t-96.5 -263.5z" />
<glyph unicode="R" horiz-adv-x="1294" d="M119 0v1434h506q262 0 394 -118.5t132 -334.5q0 -118 -49 -220t-139 -159l327 -602h-448l-242 506h-74v-506h-407zM526 838h68q67 0 104 36t37 93q0 60 -36 92.5t-105 32.5h-68v-254z" />
<glyph unicode="S" horiz-adv-x="1118" d="M25 322l340 167q32 -59 87 -100t109 -41q45 0 67.5 17.5t22.5 46.5q0 26 -25 49.5t-66 42t-93.5 43.5t-107 51t-107 66t-93.5 87t-66 116t-25 151q0 203 135.5 322.5t359.5 119.5q94 0 173.5 -26t130.5 -63t91.5 -88t60.5 -90.5t34 -80.5l-338 -151q-15 31 -25 47 t-29.5 39t-46 34t-61.5 11q-36 0 -57 -18t-21 -48q0 -28 25.5 -53.5t66.5 -44.5t94 -43.5t108 -48.5t108 -61.5t94 -81.5t66.5 -109t25.5 -142q0 -211 -135.5 -340t-378.5 -129q-96 0 -180.5 27t-140 66.5t-100 90t-67.5 90t-36 75.5z" />
<glyph unicode="T" horiz-adv-x="1067" d="M37 1077v357h997v-357h-297v-1077h-407v1077h-293z" />
<glyph unicode="U" horiz-adv-x="1486" d="M119 561v873h407v-875q0 -100 58.5 -158.5t158.5 -58.5t159 58.5t59 158.5v875h407v-873q0 -266 -164.5 -427t-460.5 -161t-460 161t-164 427z" />
<glyph unicode="V" horiz-adv-x="1501" d="M8 1434h447l297 -963l295 963h446l-520 -1434h-445z" />
<glyph unicode="W" horiz-adv-x="2105" d="M14 1434h437l190 -953l229 953h365l229 -953l191 953h436l-373 -1434h-461l-204 823l-205 -823h-463z" />
<glyph unicode="X" horiz-adv-x="1398" d="M6 1434h479l215 -406l213 406h480l-457 -717l455 -717h-453l-238 420l-241 -420h-451l453 719z" />
<glyph unicode="Y" horiz-adv-x="1318" d="M12 1434h457l190 -433l199 433h449l-445 -793v-641h-405v641z" />
<glyph unicode="Z" horiz-adv-x="1277" d="M63 0v250l590 831h-575v353h1126v-248l-598 -834h604v-352h-1147z" />
<glyph unicode="[" horiz-adv-x="753" d="M55 -403v2111h580v-336h-189v-1440h189v-335h-580z" />
<glyph unicode="\" horiz-adv-x="997" d="M20 1536h342l615 -1757h-342z" />
<glyph unicode="]" horiz-adv-x="751" d="M119 -68h188v1440h-188v336h579v-2111h-579v335z" />
<glyph unicode="^" horiz-adv-x="1230" d="M72 651l383 783h319l383 -783h-362l-181 416l-180 -416h-362z" />
<glyph unicode="_" horiz-adv-x="1296" d="M33 -59h1231v-299h-1231v299z" />
<glyph unicode="`" horiz-adv-x="999" d="M227 1485h410l133 -309h-317z" />
<glyph unicode="a" horiz-adv-x="1128" d="M33 336q0 163 116 261.5t312 98.5q115 0 192 -41v33q0 36 -35.5 61t-105.5 25q-126 0 -264 -61l-148 258q89 61 214 99t245 38q114 0 201 -24.5t141.5 -66t88.5 -102.5t47.5 -126.5t13.5 -145.5v-643h-357l-22 59q-83 -86 -256 -86q-75 0 -142.5 23t-122 67t-86.5 114.5 t-32 158.5zM430 350q0 -40 34 -61t81 -21t80.5 21t33.5 61t-33.5 63t-82.5 23q-47 0 -80 -23t-33 -63z" />
<glyph unicode="b" horiz-adv-x="1310" d="M90 0v1481h397v-467q41 35 112 64.5t163 29.5q233 0 371.5 -157t138.5 -410q0 -249 -150.5 -408.5t-386.5 -159.5q-95 0 -166.5 29.5t-109.5 67.5v-70h-369zM475 541q0 -97 52.5 -161.5t146.5 -64.5q93 0 146.5 61t53.5 165q0 102 -53 164.5t-147 62.5 q-90 0 -144.5 -60.5t-54.5 -166.5z" />
<glyph unicode="c" horiz-adv-x="995" d="M37 539q0 164 79 294.5t216 202.5t307 72q92 0 174 -24t137 -62l-104 -328q-89 66 -191 66q-106 0 -164.5 -63.5t-58.5 -157.5q0 -102 66.5 -163t171.5 -61q44 0 94 15.5t86 42.5l102 -318q-125 -82 -317 -82q-266 0 -432 158t-166 408z" />
<glyph unicode="d" horiz-adv-x="1308" d="M39 541q0 253 138.5 410t371.5 157q92 0 162.5 -29.5t111.5 -64.5v467h398v-1481h-369v70q-38 -38 -110 -67.5t-167 -29.5q-236 0 -386 159.5t-150 408.5zM436 541q0 -103 54 -164.5t147 -61.5q94 0 146.5 64.5t52.5 161.5q0 106 -54.5 166.5t-144.5 60.5 q-94 0 -147.5 -62.5t-53.5 -164.5z" />
<glyph unicode="e" horiz-adv-x="1159" d="M39 555q0 154 65.5 279t190.5 199.5t287 74.5q265 0 404.5 -156.5t139.5 -443.5q0 -32 -4 -72h-676q15 -63 65 -97t124 -34q66 0 120 32t74 64l271 -188q-9 -19 -30 -45.5t-62 -61.5t-92.5 -64t-127.5 -49t-159 -20q-180 0 -316 80.5t-205 211.5t-69 290zM457 678h266 q-4 43 -38.5 80t-94.5 37q-63 0 -96 -38t-37 -79z" />
<glyph unicode="f" horiz-adv-x="741" d="M37 768v313h113v21q0 84 25 150.5t67 110.5t101.5 73.5t125.5 42t141 12.5q63 0 117 -8v-324q-30 6 -57 6q-59 0 -90 -18t-31 -51v-15h156v-313h-156v-768h-399v768h-113z" />
<glyph unicode="g" horiz-adv-x="1296" d="M39 545q0 253 138.5 408t371.5 155q92 0 162.5 -29.5t111.5 -64.5v67h398v-944q0 -118 -34 -210.5t-91 -151.5t-137.5 -97.5t-167 -54.5t-185.5 -16q-114 0 -229 25t-193 63l113 299q164 -68 297 -68q101 0 166 27t65 88v22q-98 -81 -250 -81q-236 0 -386 157t-150 406z M436 545q0 -101 54 -161t147 -60q94 0 146.5 63.5t52.5 157.5q0 103 -54.5 163t-144.5 60q-93 0 -147 -62t-54 -161z" />
<glyph unicode="h" horiz-adv-x="1198" d="M90 0v1481h397v-490q38 47 104 82t150 35q102 0 177.5 -42t117.5 -114.5t62 -157.5t20 -184v-610h-397v637q0 59 -32.5 90t-84.5 31q-56 0 -86.5 -33t-30.5 -82v-643h-397z" />
<glyph unicode="i" d="M78 1341q0 85 61 142t150 57t151 -57t62 -142q0 -84 -62 -140t-151 -56t-150 56t-61 140zM90 0v1081h397v-1081h-397z" />
<glyph unicode="j" d="M-88 -61q26 -2 51 -2q62 0 94.5 26.5t32.5 73.5v1044h397v-1077q0 -397 -491 -397q-44 0 -84 8v324zM78 1341q0 85 61 142t150 57t151 -57t62 -142q0 -84 -62 -140t-151 -56t-150 56t-61 140z" />
<glyph unicode="k" horiz-adv-x="1210" d="M90 0v1481h397v-819l254 419h445l-344 -497l372 -584h-466l-261 477v-477h-397z" />
<glyph unicode="l" d="M90 0v1481h397v-1481h-397z" />
<glyph unicode="m" horiz-adv-x="1765" d="M90 0v1081h387v-102q34 53 99 91t163 38q176 0 273 -127q113 127 301 127q119 0 204.5 -57t125.5 -148.5t40 -206.5v-696h-397v645q0 51 -28.5 82t-75.5 31q-45 0 -72 -32.5t-27 -80.5v-645h-395v637q0 57 -26.5 89t-75.5 32q-47 0 -73 -29t-26 -86v-643h-397z" />
<glyph unicode="n" horiz-adv-x="1193" d="M90 0v1081h387v-102q35 49 107.5 89t163.5 40q186 0 276 -108.5t90 -303.5v-696h-397v637q0 59 -31.5 90t-83.5 31q-56 0 -85.5 -33t-29.5 -82v-643h-397z" />
<glyph unicode="o" horiz-adv-x="1277" d="M37 541q0 161 79 291t216.5 203t306.5 73t306.5 -73t216.5 -203t79 -291t-79 -291.5t-216.5 -203.5t-306.5 -73t-306.5 73t-216.5 203.5t-79 291.5zM434 541q0 -102 57.5 -164t147.5 -62t147.5 62t57.5 164t-57.5 164.5t-147.5 62.5t-147.5 -62.5t-57.5 -164.5z" />
<glyph unicode="p" horiz-adv-x="1310" d="M90 -383v1464h369v-69q38 38 109 67t167 29q236 0 386.5 -159t150.5 -408q0 -253 -139 -410.5t-371 -157.5q-92 0 -162.5 30t-112.5 65v-451h-397zM475 541q0 -106 54.5 -167t144.5 -61q93 0 146.5 63t53.5 165q0 103 -53.5 164t-146.5 61q-94 0 -146.5 -64t-52.5 -161z " />
<glyph unicode="q" horiz-adv-x="1308" d="M39 541q0 249 150 408t386 159q96 0 167.5 -29t109.5 -67v69h369v-1464h-398v451q-42 -35 -112 -65t-162 -30q-232 0 -371 157.5t-139 410.5zM436 541q0 -102 53.5 -165t147.5 -63q90 0 144.5 61t54.5 167q0 97 -52.5 161t-146.5 64q-93 0 -147 -61t-54 -164z" />
<glyph unicode="r" horiz-adv-x="798" d="M90 0v1081h387v-137q39 76 115.5 120t165.5 44v-387q-28 8 -64 8q-99 0 -153 -59.5t-54 -165.5v-504h-397z" />
<glyph unicode="s" horiz-adv-x="942" d="M20 145l218 217q110 -75 231 -75q37 0 55.5 11t18.5 28q0 18 -27 32t-70 26.5t-95 28.5t-104 43.5t-95 64.5t-70 98t-27 139q0 157 126 253.5t317 96.5q253 0 407 -178l-256 -203q-78 70 -160 70q-30 0 -45.5 -11t-15.5 -26q0 -21 27 -37.5t71 -30t96.5 -29.5t105 -42 t96.5 -61t71 -92t27 -130q0 -175 -123.5 -270t-327.5 -95q-143 0 -268 52t-183 120z" />
<glyph unicode="t" horiz-adv-x="776" d="M31 768v313h112v228h387v-228h175v-313h-175v-354q0 -86 142 -86l39 2v-334q-46 -12 -144 -12q-434 0 -434 426v358h-102z" />
<glyph unicode="u" horiz-adv-x="1185" d="M82 385v696h397v-637q0 -59 31.5 -89.5t83.5 -30.5q56 0 85.5 32.5t29.5 81.5v643h397v-1081h-387v102q-35 -49 -107 -89t-163 -40q-186 0 -276.5 108.5t-90.5 303.5z" />
<glyph unicode="v" horiz-adv-x="1198" d="M4 1081h426l174 -671l172 671h414l-356 -1081h-463z" />
<glyph unicode="w" horiz-adv-x="1751" d="M14 1081h435l110 -659q2 9 133 659h369l131 -659l111 659h436l-293 -1081h-449l-123 545l-120 -545h-449z" />
<glyph unicode="x" horiz-adv-x="1165" d="M0 0l360 547l-356 534h440l140 -272l135 272h440l-354 -534l360 -547h-424l-157 274l-162 -274h-422z" />
<glyph unicode="y" horiz-adv-x="1185" d="M12 1081h426l156 -559l166 559h414l-533 -1448h-373l146 408z" />
<glyph unicode="z" horiz-adv-x="987" d="M55 0v229l373 529h-367v323h871v-231l-379 -526h381v-324h-879z" />
<glyph unicode="{" horiz-adv-x="897" d="M45 465v373q36 0 60.5 6.5t47.5 25t34.5 58t11.5 100.5v174q0 245 158 375.5t421 130.5v-336q-188 0 -188 -170v-268q0 -65 -23 -119t-58.5 -86.5t-70.5 -51.5t-67 -26q32 -7 67 -26t70.5 -51.5t58.5 -86t23 -118.5v-267q0 -170 188 -170v-335q-263 0 -421 130t-158 375 v172q0 61 -11.5 100.5t-34.5 58.5t-47.5 25.5t-60.5 6.5z" />
<glyph unicode="|" horiz-adv-x="645" d="M135 -537v2300h375v-2300h-375z" />
<glyph unicode="}" horiz-adv-x="897" d="M119 -68q188 0 188 170v267q0 65 23 118.5t58.5 86t70.5 51.5t67 26q-32 7 -67 26t-70.5 51.5t-58.5 86.5t-23 119v268q0 170 -188 170v336q263 0 421 -130.5t158 -375.5v-174q0 -61 11.5 -100.5t34.5 -58t47.5 -25t60.5 -6.5v-373q-36 0 -60.5 -6.5t-47.5 -25.5 t-34.5 -58.5t-11.5 -100.5v-172q0 -245 -158 -375t-421 -130v335z" />
<glyph unicode="~" horiz-adv-x="1159" d="M55 408q0 196 94.5 313t251.5 117q71 0 177 -36t149 -36q33 0 53.5 19.5t20.5 54.5h303q0 -59 -12.5 -118.5t-39.5 -116t-65.5 -100t-95 -69.5t-123.5 -26q-56 -3 -122 15t-124 38t-92 20q-35 0 -55 -19.5t-19 -55.5h-301z" />
<glyph unicode="&#xa1;" horiz-adv-x="671" d="M104 922q0 93 66.5 159t165.5 66t165 -66t66 -159q0 -96 -66 -163t-165 -67t-165.5 67t-66.5 163zM125 -313l31 968h360l31 -968h-422z" />
<glyph unicode="&#xa2;" horiz-adv-x="978" d="M35 690q0 220 138 372t359 185v187h228v-189q49 -6 101.5 -26.5t88.5 -47.5l-104 -329q-95 65 -193 65q-106 0 -163.5 -61t-57.5 -156q0 -104 64 -163.5t172 -59.5q104 0 178 59l102 -319q-77 -50 -188 -70v-137h-228v135q-225 33 -361 183t-136 372z" />
<glyph unicode="&#xa3;" horiz-adv-x="1230" d="M66 0v346h106v211h-96v291h96v158q0 202 134 328t368 126q85 0 158 -23.5t121 -58t86 -81.5t58 -87.5t33 -81.5l-327 -137q-30 101 -125 101q-46 0 -76.5 -31.5t-30.5 -77.5v-135h301v-291h-301v-211h598v-346h-1103z" />
<glyph unicode="&#xa5;" horiz-adv-x="1318" d="M12 1434h455l192 -433l199 433h449l-303 -545h155v-246h-297v-111h297v-245h-297v-287h-405v287h-299v245h299v111h-299v246h159z" />
<glyph unicode="&#xa7;" horiz-adv-x="1130" d="M59 -123l334 143q23 -51 75 -93t112 -42q26 0 45.5 12.5t19.5 39.5q0 31 -23.5 54t-80.5 56l-232 135q-123 70 -183 153.5t-60 201.5q0 172 170 264q-158 126 -158 293q0 182 128 294.5t345 112.5q92 0 173.5 -26t137.5 -65t101 -88.5t69.5 -92t36.5 -80.5l-334 -143 q-23 51 -74 93t-110 42q-27 0 -46.5 -13t-19.5 -38q0 -31 24 -54.5t81 -56.5l246 -145q114 -66 170.5 -147.5t56.5 -197.5q0 -172 -170 -264q75 -62 117.5 -131.5t42.5 -161.5q0 -182 -128.5 -294.5t-344.5 -112.5q-93 0 -175.5 26t-138.5 65t-101 88.5t-69.5 92t-36.5 80.5 zM436 545q0 -39 39 -58l135 -65q41 0 62.5 16.5t21.5 42.5q0 39 -39 58l-135 65q-41 0 -62.5 -16.5t-21.5 -42.5z" />
<glyph unicode="&#xa8;" horiz-adv-x="999" d="M92 1337q0 72 49.5 122t126.5 50t127.5 -50t50.5 -122t-50.5 -122t-127.5 -50t-126.5 50t-49.5 122zM555 1337q0 72 48 122t126 50q75 0 125.5 -50.5t50.5 -121.5t-50.5 -121.5t-125.5 -50.5q-78 0 -126 50t-48 122z" />
<glyph unicode="&#xa9;" horiz-adv-x="1628" d="M61 713q0 210 97 380.5t270 268.5t387 98q213 0 385.5 -98t269.5 -269t97 -380q0 -154 -57.5 -291t-156.5 -236t-239.5 -157t-300.5 -58t-300 58t-239 157t-156 236t-57 291zM305 721q0 -235 140.5 -384t367.5 -149t368.5 149t141.5 382q0 229 -141 376.5t-367 147.5 q-228 0 -369 -147t-141 -375zM440 719q0 167 108 279t271 112q199 0 307 -166l-206 -153q-33 63 -95 63q-42 0 -71 -38.5t-29 -98.5q0 -59 29 -97t71 -38q62 0 95 63l206 -156q-110 -163 -307 -163q-163 0 -271 113t-108 280z" />
<glyph unicode="&#xaa;" horiz-adv-x="864" d="M51 885q0 123 87 194.5t235 71.5q78 0 145 -29v25q0 26 -27.5 45.5t-80.5 19.5q-101 0 -197 -47l-111 193q63 45 154.5 73.5t189.5 28.5q108 0 182 -25t113.5 -73t55.5 -105t16 -133v-489h-266l-15 41q-65 -62 -178 -62q-124 0 -213.5 71.5t-89.5 199.5zM346 895 q0 -30 26 -45.5t62 -15.5q39 0 63.5 15t24.5 46q0 32 -24.5 49t-63.5 17q-37 0 -62.5 -17.5t-25.5 -48.5z" />
<glyph unicode="&#xab;" horiz-adv-x="1140" d="M47 606l252 393h344l-252 -393l252 -393h-344zM496 606l254 393h342l-252 -393l252 -393h-342z" />
<glyph unicode="&#xad;" horiz-adv-x="829" d="M100 455v348h627v-348h-627z" />
<glyph unicode="&#xae;" horiz-adv-x="944" d="M27 1090q0 184 123.5 307t314.5 123q203 0 326.5 -121.5t123.5 -306.5q0 -184 -123.5 -308.5t-322.5 -124.5q-198 0 -320 122.5t-122 308.5zM160 1090q0 -134 85 -222t224 -88q144 0 227.5 87t83.5 225q0 137 -84.5 221t-230.5 84q-137 0 -221 -86t-84 -221zM287 874v443 h217q75 0 116.5 -41t41.5 -107q0 -98 -70 -127l82 -168h-150l-65 142h-29v-142h-143zM430 1126h47q16 0 26.5 10t10.5 27t-10.5 27t-26.5 10h-47v-74z" />
<glyph unicode="&#xaf;" horiz-adv-x="919" d="M156 1190v274h608v-274h-608z" />
<glyph unicode="&#xb0;" horiz-adv-x="833" d="M43 1104q0 149 107.5 252.5t267.5 103.5q159 0 266 -103.5t107 -252.5q0 -150 -106 -251t-267 -101q-162 0 -268.5 101t-106.5 251zM315 1106q0 -42 27 -70t76 -28t74.5 28t25.5 70q0 41 -26 69.5t-74 28.5q-50 0 -76.5 -28.5t-26.5 -69.5z" />
<glyph unicode="&#xb2;" horiz-adv-x="788" d="M45 1198q10 38 32 76.5t61 80.5t103.5 68.5t143.5 26.5q93 0 169 -28.5t125.5 -91.5t49.5 -150q0 -55 -25.5 -104t-67 -83.5t-82 -61t-81.5 -49.5t-55 -36h321v-232h-680v111q0 56 27.5 107.5t68.5 87t89.5 70t89.5 59t68.5 51t27.5 49.5q0 24 -15 37.5t-42 13.5 q-63 0 -99 -82z" />
<glyph unicode="&#xb3;" horiz-adv-x="778" d="M49 850l227 80q29 -80 97 -80q26 0 43.5 16t17.5 41q0 26 -22.5 43t-55.5 17h-108v163l82 78h-242v226h606v-177l-159 -141q88 -19 139 -81.5t51 -151.5q0 -91 -48 -157t-123.5 -97t-168.5 -31q-79 0 -143.5 26.5t-102.5 68t-59.5 81t-30.5 76.5z" />
<glyph unicode="&#xb4;" horiz-adv-x="999" d="M227 1176l133 309h410l-225 -309h-318z" />
<glyph unicode="&#xb6;" horiz-adv-x="1216" d="M66 1044q0 169 114 279.5t287 110.5h287v-1526h-297v741q-166 3 -278.5 114.5t-112.5 280.5zM868 -92v1526h299v-1526h-299z" />
<glyph unicode="&#xb7;" horiz-adv-x="569" d="M53 643q0 96 66.5 162.5t165.5 66.5t165 -66.5t66 -162.5q0 -93 -66 -159t-165 -66t-165.5 66t-66.5 159z" />
<glyph unicode="&#xb8;" horiz-adv-x="919" d="M225 -463l49 178q40 -10 72 -10q30 0 49 14t19 33q0 25 -27.5 37t-58.5 12l-39 -4l39 232h190l-14 -95q72 -20 116 -71.5t44 -126.5q0 -111 -80.5 -169.5t-206.5 -58.5q-82 0 -152 29z" />
<glyph unicode="&#xb9;" horiz-adv-x="657" d="M78 1372l194 62h240v-820h-289v541l-78 -22z" />
<glyph unicode="&#xba;" horiz-adv-x="1028" d="M61 1034q0 184 128.5 305t322.5 121q201 0 328 -119t127 -303q0 -183 -129 -303.5t-324 -120.5q-200 0 -326.5 118.5t-126.5 301.5zM358 1034q0 -73 44 -118.5t112 -45.5q67 0 112.5 47.5t45.5 120.5q0 74 -46 120t-112 46q-70 0 -113 -46.5t-43 -123.5z" />
<glyph unicode="&#xbb;" horiz-adv-x="1140" d="M47 213l256 393l-256 393h346l252 -393l-252 -393h-346zM498 213l254 393l-254 393h346l250 -393l-250 -393h-346z" />
<glyph unicode="&#xbc;" horiz-adv-x="1816" d="M63 1372l195 62h240v-820h-289v541l-78 -22zM330 -84l753 1602h336l-757 -1602h-332zM1018 137v211l342 471h315v-442h90v-240h-90v-137h-280v137h-377zM1276 377h119v178z" />
<glyph unicode="&#xbd;" horiz-adv-x="1845" d="M63 1372l195 62h240v-820h-289v541l-78 -22zM309 -84l754 1602h334l-756 -1602h-332zM1077 584q10 38 32 76.5t61 80.5t103.5 68.5t143.5 26.5q93 0 169.5 -29t125.5 -92t49 -150q0 -55 -25.5 -104t-67 -83.5t-82 -61t-81.5 -49.5t-55 -36h322v-231h-680v111 q0 56 27.5 107.5t68.5 87t89 70t89 59t68.5 51t27.5 49.5q0 24 -15 37.5t-42 13.5q-62 0 -98 -82z" />
<glyph unicode="&#xbe;" horiz-adv-x="1892" d="M41 850l227 80q29 -80 97 -80q26 0 43.5 16t17.5 41q0 26 -22.5 43t-55.5 17h-108v163l82 78h-242v226h606v-177l-160 -141q88 -19 139.5 -81.5t51.5 -151.5q0 -91 -48 -157t-123.5 -97t-168.5 -31q-79 0 -143.5 26.5t-102.5 68t-59.5 81t-30.5 76.5zM410 -84l753 1602 h334l-756 -1602h-331zM1090 137v211l344 471h315v-442h90v-240h-90v-137h-281v137h-378zM1350 377h118v178z" />
<glyph unicode="&#xbf;" horiz-adv-x="1036" d="M41 70q0 78 34 144t82 111.5t96 86.5t82 86.5t34 93.5v63h383v-90q0 -65 -23 -121.5t-57 -93.5t-74 -73t-74 -62t-57 -57t-23 -62q0 -37 27.5 -64.5t81.5 -27.5q90 0 131 102l311 -137q-14 -41 -34.5 -78.5t-59 -81t-88 -75.5t-124.5 -53t-165 -21q-210 0 -346.5 113 t-136.5 297zM332 922q0 93 66 159t165 66t165.5 -66t66.5 -159q0 -96 -66.5 -163t-165.5 -67t-165 67t-66 163z" />
<glyph unicode="&#xc0;" horiz-adv-x="1437" d="M8 0l496 1434h430l496 -1434h-410l-86 274h-430l-86 -274h-410zM354 1798h410l133 -309h-317zM600 600h238l-119 412z" />
<glyph unicode="&#xc1;" horiz-adv-x="1437" d="M8 0l496 1434h430l496 -1434h-410l-86 274h-430l-86 -274h-410zM520 1489l133 309h410l-225 -309h-318zM600 600h238l-119 412z" />
<glyph unicode="&#xc2;" horiz-adv-x="1437" d="M8 0l496 1434h430l496 -1434h-410l-86 274h-430l-86 -274h-410zM319 1493l201 309h402l200 -309h-325l-76 125l-76 -125h-326zM600 600h238l-119 412z" />
<glyph unicode="&#xc3;" horiz-adv-x="1437" d="M8 0l496 1434h430l496 -1434h-410l-86 274h-430l-86 -274h-410zM315 1495q0 146 70.5 236t189.5 90q63 0 146.5 -31t107.5 -31q58 0 58 64h237q0 -146 -70.5 -236t-189.5 -90q-63 0 -146.5 31t-107.5 31q-57 0 -57 -64h-238zM600 600h238l-119 412z" />
<glyph unicode="&#xc4;" horiz-adv-x="1437" d="M8 0l496 1434h430l496 -1434h-410l-86 274h-430l-86 -274h-410zM301 1665q0 72 49.5 122t126.5 50t127.5 -50t50.5 -122t-50.5 -122t-127.5 -50t-126.5 50t-49.5 122zM600 600h238l-119 412zM764 1665q0 72 48 122t126 50q76 0 126 -50.5t50 -121.5t-50 -121.5 t-126 -50.5q-78 0 -126 50t-48 122z" />
<glyph unicode="&#xc5;" horiz-adv-x="1437" d="M8 0l496 1434h430l496 -1434h-410l-86 274h-430l-86 -274h-410zM461 1710q0 100 73 163.5t181 63.5q110 0 183 -63t73 -162q0 -100 -73 -163.5t-183 -63.5q-107 0 -180.5 63.5t-73.5 161.5zM600 600h238l-119 412zM645 1712q0 -34 20 -55t52 -21t51.5 21t19.5 55 q0 33 -19.5 53.5t-51.5 20.5t-52 -21t-20 -53z" />
<glyph unicode="&#xc6;" horiz-adv-x="1880" d="M16 0l781 1434h985v-357h-396v-176h334v-354h-334v-191h410v-356h-817v274h-377l-143 -274h-443zM748 600h231v463z" />
<glyph unicode="&#xc7;" horiz-adv-x="1300" d="M47 719q0 154 55 289.5t154 235.5t243.5 158t315.5 58q125 0 239 -33.5t195 -89.5l-112 -356q-131 106 -301 106q-161 0 -262 -104.5t-101 -263.5q0 -162 101 -267.5t262 -105.5q169 0 301 107l112 -357q-81 -56 -195 -89.5t-239 -33.5h-12l-6 -39q72 -20 115.5 -71.5 t43.5 -126.5q0 -111 -80 -169.5t-206 -58.5q-82 0 -152 29l49 178q40 -10 72 -10q30 0 49 14t19 33q0 25 -27.5 37t-58.5 12l-39 -4l32 199q-172 39 -301.5 143.5t-197.5 254.5t-68 325z" />
<glyph unicode="&#xc8;" horiz-adv-x="1019" d="M119 0v1434h803v-357h-396v-176h334v-354h-334v-191h412v-356h-819zM195 1798h409l133 -309h-317z" />
<glyph unicode="&#xc9;" horiz-adv-x="1019" d="M119 0v1434h803v-357h-396v-176h334v-354h-334v-191h412v-356h-819zM324 1489l133 309h409l-225 -309h-317z" />
<glyph unicode="&#xca;" horiz-adv-x="1019" d="M119 0v1434h803v-357h-396v-176h334v-354h-334v-191h412v-356h-819zM123 1493l201 309h401l201 -309h-326l-76 125l-75 -125h-326z" />
<glyph unicode="&#xcb;" horiz-adv-x="1019" d="M96 1665q0 72 49.5 122t126.5 50t128 -50t51 -122t-51 -122t-128 -50t-126.5 50t-49.5 122zM119 0v1434h803v-357h-396v-176h334v-354h-334v-191h412v-356h-819zM559 1665q0 72 48 122t126 50q75 0 125.5 -50.5t50.5 -121.5t-50.5 -121.5t-125.5 -50.5q-78 0 -126 50 t-48 122z" />
<glyph unicode="&#xcc;" horiz-adv-x="647" d="M0 1798h410l133 -309h-318zM119 0v1434h407v-1434h-407z" />
<glyph unicode="&#xcd;" horiz-adv-x="647" d="M119 0v1434h407v-1434h-407zM129 1489l133 309h410l-226 -309h-317z" />
<glyph unicode="&#xce;" horiz-adv-x="647" d="M-76 1493l201 309h401l201 -309h-326l-75 125l-76 -125h-326zM119 0v1434h407v-1434h-407z" />
<glyph unicode="&#xcf;" horiz-adv-x="647" d="M-82 1665q0 72 49.5 122t126.5 50t127.5 -50t50.5 -122t-50.5 -122t-127.5 -50t-126.5 50t-49.5 122zM119 0v1434h407v-1434h-407zM381 1665q0 72 48 122t126 50q75 0 125.5 -50.5t50.5 -121.5t-50.5 -121.5t-125.5 -50.5q-78 0 -126 50t-48 122z" />
<glyph unicode="&#xd0;" horiz-adv-x="1437" d="M43 545v348h111v541h467q230 0 402.5 -85t267.5 -248t95 -384q0 -330 -208 -523.5t-557 -193.5h-467v545h-111zM561 344h51q162 0 256.5 95.5t94.5 277.5q0 184 -94 278.5t-257 94.5h-51v-197h174v-348h-174v-201z" />
<glyph unicode="&#xd1;" horiz-adv-x="1515" d="M119 0v1434h416l460 -813v813h402v-1434h-406l-473 801v-801h-399zM367 1495q0 146 70.5 236t189.5 90q63 0 146.5 -31t107.5 -31q57 0 57 64h238q0 -146 -71 -236t-190 -90q-63 0 -146 31t-107 31q-58 0 -58 -64h-237z" />
<glyph unicode="&#xd2;" horiz-adv-x="1644" d="M47 719q0 155 55 290.5t154 235.5t245 157.5t320 57.5t320 -57.5t245 -157.5t154 -235.5t55 -290.5q0 -157 -55 -293.5t-154 -237t-245 -158t-320 -57.5t-320 57.5t-245 158t-154 237t-55 293.5zM471 1798h410l133 -309h-318zM473 719q0 -163 96.5 -268t251.5 -105 t251.5 105t96.5 268q0 159 -96.5 263.5t-251.5 104.5t-251.5 -104.5t-96.5 -263.5z" />
<glyph unicode="&#xd3;" horiz-adv-x="1644" d="M47 719q0 155 55 290.5t154 235.5t245 157.5t320 57.5t320 -57.5t245 -157.5t154 -235.5t55 -290.5q0 -157 -55 -293.5t-154 -237t-245 -158t-320 -57.5t-320 57.5t-245 158t-154 237t-55 293.5zM473 719q0 -163 96.5 -268t251.5 -105t251.5 105t96.5 268 q0 159 -96.5 263.5t-251.5 104.5t-251.5 -104.5t-96.5 -263.5zM633 1489l133 309h410l-226 -309h-317z" />
<glyph unicode="&#xd4;" horiz-adv-x="1644" d="M47 719q0 155 55 290.5t154 235.5t245 157.5t320 57.5t320 -57.5t245 -157.5t154 -235.5t55 -290.5q0 -157 -55 -293.5t-154 -237t-245 -158t-320 -57.5t-320 57.5t-245 158t-154 237t-55 293.5zM416 1493l200 309h402l201 -309h-326l-76 125l-76 -125h-325zM473 719 q0 -163 96.5 -268t251.5 -105t251.5 105t96.5 268q0 159 -96.5 263.5t-251.5 104.5t-251.5 -104.5t-96.5 -263.5z" />
<glyph unicode="&#xd5;" horiz-adv-x="1642" d="M47 719q0 155 55 290.5t154 235.5t245 157.5t320 57.5t320 -57.5t245 -157.5t154 -235.5t55 -290.5q0 -157 -55 -293.5t-154 -237t-245 -158t-320 -57.5t-320 57.5t-245 158t-154 237t-55 293.5zM422 1495q0 146 70.5 236t189.5 90q63 0 146.5 -31t107.5 -31q57 0 57 64 h238q0 -146 -70.5 -236t-189.5 -90q-63 0 -146.5 31t-107.5 31q-58 0 -58 -64h-237zM473 719q0 -163 96.5 -268t251.5 -105t251.5 105t96.5 268q0 159 -96.5 263.5t-251.5 104.5t-251.5 -104.5t-96.5 -263.5z" />
<glyph unicode="&#xd6;" horiz-adv-x="1642" d="M47 719q0 155 55 290.5t154 235.5t245 157.5t320 57.5t320 -57.5t245 -157.5t154 -235.5t55 -290.5q0 -157 -55 -293.5t-154 -237t-245 -158t-320 -57.5t-320 57.5t-245 158t-154 237t-55 293.5zM416 1665q0 72 49.5 122t126.5 50t127.5 -50t50.5 -122t-50.5 -122 t-127.5 -50t-126.5 50t-49.5 122zM473 719q0 -163 96.5 -268t251.5 -105t251.5 105t96.5 268q0 159 -96.5 263.5t-251.5 104.5t-251.5 -104.5t-96.5 -263.5zM879 1665q0 72 48 122t126 50q75 0 125.5 -50.5t50.5 -121.5t-50.5 -121.5t-125.5 -50.5q-78 0 -126 50t-48 122z " />
<glyph unicode="&#xd7;" horiz-adv-x="1101" d="M45 344l289 295l-289 293l221 215l281 -291l289 291l219 -215l-289 -295l287 -293l-217 -213l-285 289l-285 -291z" />
<glyph unicode="&#xd8;" horiz-adv-x="1644" d="M47 719q0 155 55 290.5t154 235.5t245 157.5t320 57.5q209 0 373 -82l94 115l205 -160l-88 -108q92 -98 141 -228t49 -278q0 -157 -55 -293.5t-154 -237t-245 -158t-320 -57.5q-204 0 -375 80l-90 -110l-204 159l86 105q-191 207 -191 512zM473 719q0 -103 37 -178 l430 526q-62 20 -119 20q-155 0 -251.5 -104.5t-96.5 -263.5zM700 365q59 -19 121 -19q155 0 251.5 105t96.5 268q0 94 -36 174z" />
<glyph unicode="&#xd9;" horiz-adv-x="1484" d="M119 561v873h407v-875q0 -100 58.5 -158.5t158.5 -58.5t159 58.5t59 158.5v875h407v-873q0 -266 -164.5 -427t-460.5 -161t-460 161t-164 427zM389 1798h410l133 -309h-318z" />
<glyph unicode="&#xda;" horiz-adv-x="1484" d="M119 561v873h407v-875q0 -100 58.5 -158.5t158.5 -58.5t159 58.5t59 158.5v875h407v-873q0 -266 -164.5 -427t-460.5 -161t-460 161t-164 427zM561 1489l133 309h410l-225 -309h-318z" />
<glyph unicode="&#xdb;" horiz-adv-x="1484" d="M119 561v873h407v-875q0 -100 58.5 -158.5t158.5 -58.5t159 58.5t59 158.5v875h407v-873q0 -266 -164.5 -427t-460.5 -161t-460 161t-164 427zM342 1493l201 309h401l201 -309h-326l-76 125l-75 -125h-326z" />
<glyph unicode="&#xdc;" horiz-adv-x="1486" d="M119 561v873h407v-875q0 -100 58.5 -158.5t158.5 -58.5t159 58.5t59 158.5v875h407v-873q0 -266 -164.5 -427t-460.5 -161t-460 161t-164 427zM344 1665q0 72 49.5 122t126.5 50t127.5 -50t50.5 -122t-50.5 -122t-127.5 -50t-126.5 50t-49.5 122zM807 1665q0 72 48 122 t126 50q75 0 125.5 -50.5t50.5 -121.5t-50.5 -121.5t-125.5 -50.5q-78 0 -126 50t-48 122z" />
<glyph unicode="&#xdd;" horiz-adv-x="1318" d="M12 1434h457l190 -433l199 433h449l-445 -793v-641h-405v641zM483 1489l133 309h410l-225 -309h-318z" />
<glyph unicode="&#xde;" horiz-adv-x="1232" d="M119 0v1434h407v-228h191q226 0 353.5 -128.5t127.5 -346.5t-131.5 -352.5t-349.5 -134.5h-191v-244h-407zM526 592h129q62 0 93.5 37t31.5 100q0 61 -32 98t-89 37h-133v-272z" />
<glyph unicode="&#xdf;" horiz-adv-x="1212" d="M90 0v1102q0 85 26 152t70.5 111t106 73t128 41t142.5 12q241 0 381.5 -101.5t140.5 -275.5q0 -146 -122 -229q211 -131 211 -387q0 -228 -164.5 -363t-454.5 -135v317q108 0 164.5 53.5t56.5 137.5q0 79 -57.5 127.5t-163.5 48.5v299q84 0 124 22.5t40 71.5 q0 38 -29.5 63t-89.5 25q-59 0 -86 -27t-27 -63v-1075h-397z" />
<glyph unicode="&#xe0;" horiz-adv-x="1128" d="M33 336q0 163 116 261.5t312 98.5q115 0 192 -41v33q0 36 -35.5 61t-105.5 25q-126 0 -264 -61l-148 258q89 61 214 99t245 38q114 0 201 -24.5t141.5 -66t88.5 -102.5t47.5 -126.5t13.5 -145.5v-643h-357l-22 59q-83 -86 -256 -86q-75 0 -142.5 23t-122 67t-86.5 114.5 t-32 158.5zM233 1485h410l133 -309h-317zM430 350q0 -40 34 -61t81 -21t80.5 21t33.5 61t-33.5 63t-82.5 23q-47 0 -80 -23t-33 -63z" />
<glyph unicode="&#xe1;" horiz-adv-x="1128" d="M33 336q0 163 116 261.5t312 98.5q115 0 192 -41v33q0 36 -35.5 61t-105.5 25q-126 0 -264 -61l-148 258q89 61 214 99t245 38q114 0 201 -24.5t141.5 -66t88.5 -102.5t47.5 -126.5t13.5 -145.5v-643h-357l-22 59q-83 -86 -256 -86q-75 0 -142.5 23t-122 67t-86.5 114.5 t-32 158.5zM385 1176l133 309h410l-226 -309h-317zM430 350q0 -40 34 -61t81 -21t80.5 21t33.5 61t-33.5 63t-82.5 23q-47 0 -80 -23t-33 -63z" />
<glyph unicode="&#xe2;" horiz-adv-x="1128" d="M33 336q0 163 116 261.5t312 98.5q115 0 192 -41v33q0 36 -35.5 61t-105.5 25q-126 0 -264 -61l-148 258q89 61 214 99t245 38q114 0 201 -24.5t141.5 -66t88.5 -102.5t47.5 -126.5t13.5 -145.5v-643h-357l-22 59q-83 -86 -256 -86q-75 0 -142.5 23t-122 67t-86.5 114.5 t-32 158.5zM158 1176l200 309h402l201 -309h-326l-76 124l-76 -124h-325zM430 350q0 -40 34 -61t81 -21t80.5 21t33.5 61t-33.5 63t-82.5 23q-47 0 -80 -23t-33 -63z" />
<glyph unicode="&#xe3;" horiz-adv-x="1128" d="M33 336q0 163 116 261.5t312 98.5q115 0 192 -41v33q0 36 -35.5 61t-105.5 25q-126 0 -264 -61l-148 258q89 61 214 99t245 38q114 0 201 -24.5t141.5 -66t88.5 -102.5t47.5 -126.5t13.5 -145.5v-643h-357l-22 59q-83 -86 -256 -86q-75 0 -142.5 23t-122 67t-86.5 114.5 t-32 158.5zM158 1174q0 146 70.5 235.5t189.5 89.5q63 0 146.5 -30.5t107.5 -30.5q57 0 57 63h238q0 -146 -70.5 -235.5t-189.5 -89.5q-63 0 -146.5 30.5t-107.5 30.5q-58 0 -58 -63h-237zM430 350q0 -40 34 -61t81 -21t80.5 21t33.5 61t-33.5 63t-82.5 23q-47 0 -80 -23 t-33 -63z" />
<glyph unicode="&#xe4;" horiz-adv-x="1128" d="M33 336q0 163 116 261.5t312 98.5q115 0 192 -41v33q0 36 -35.5 61t-105.5 25q-126 0 -264 -61l-148 258q89 61 214 99t245 38q114 0 201 -24.5t141.5 -66t88.5 -102.5t47.5 -126.5t13.5 -145.5v-643h-357l-22 59q-83 -86 -256 -86q-75 0 -142.5 23t-122 67t-86.5 114.5 t-32 158.5zM156 1337q0 72 49.5 122t126.5 50t127.5 -50t50.5 -122t-50.5 -122t-127.5 -50t-126.5 50t-49.5 122zM430 350q0 -40 34 -61t81 -21t80.5 21t33.5 61t-33.5 63t-82.5 23q-47 0 -80 -23t-33 -63zM618 1337q0 72 48.5 122t126.5 50q75 0 125.5 -50.5t50.5 -121.5 t-50.5 -121.5t-125.5 -50.5q-78 0 -126.5 50t-48.5 122z" />
<glyph unicode="&#xe5;" horiz-adv-x="1128" d="M33 336q0 163 116 261.5t312 98.5q115 0 192 -41v33q0 36 -35.5 61t-105.5 25q-126 0 -264 -61l-148 258q89 61 214 99t245 38q114 0 201 -24.5t141.5 -66t88.5 -102.5t47.5 -126.5t13.5 -145.5v-643h-357l-22 59q-83 -86 -256 -86q-75 0 -142.5 23t-122 67t-86.5 114.5 t-32 158.5zM313 1360q0 100 73 163.5t181 63.5q110 0 183 -63t73 -162q0 -100 -73 -163.5t-183 -63.5q-107 0 -180.5 63.5t-73.5 161.5zM430 350q0 -40 34 -61t81 -21t80.5 21t33.5 61t-33.5 63t-82.5 23q-47 0 -80 -23t-33 -63zM498 1362q0 -34 19.5 -55t51.5 -21t52 21 t20 55q0 32 -20 53t-52 21t-51.5 -20.5t-19.5 -53.5z" />
<glyph unicode="&#xe6;" horiz-adv-x="1763" d="M33 336q0 163 116 261.5t312 98.5q115 0 192 -41v33q0 36 -35.5 61t-105.5 25q-126 0 -264 -61l-148 258q89 61 214 99t245 38q206 0 332 -92q135 92 295 92q265 0 405 -156.5t140 -443.5q0 -22 -5 -72h-675q15 -63 64.5 -97t123.5 -34q66 0 120.5 32.5t74.5 63.5 l270 -188q-9 -19 -30 -45.5t-62 -61.5t-92.5 -64t-127.5 -49t-159 -20q-244 0 -406 146q-67 -71 -158.5 -108.5t-230.5 -37.5q-109 0 -200 41t-148 125.5t-57 196.5zM430 350q0 -40 34 -61t81 -21t80.5 21t33.5 61t-33.5 63t-82.5 23q-47 0 -80 -23t-33 -63zM1061 678h266 q-4 43 -38.5 80t-94.5 37q-63 0 -96 -38t-37 -79z" />
<glyph unicode="&#xe7;" horiz-adv-x="995" d="M37 539q0 164 79 294.5t216 202.5t307 72q92 0 174 -24t137 -62l-104 -328q-89 66 -191 66q-106 0 -164.5 -63.5t-58.5 -157.5q0 -102 66.5 -163t171.5 -61q44 0 94 15.5t86 42.5l102 -318q-122 -79 -307 -82l-6 -39q72 -20 116 -71.5t44 -126.5q0 -111 -80.5 -169.5 t-206.5 -58.5q-82 0 -152 29l50 178q40 -10 71 -10q30 0 49 14t19 33q0 25 -27.5 37t-58.5 12l-39 -4l33 197q-194 47 -307 193.5t-113 351.5z" />
<glyph unicode="&#xe8;" horiz-adv-x="1159" d="M39 555q0 154 65.5 279t190.5 199.5t287 74.5q265 0 404.5 -156.5t139.5 -443.5q0 -32 -4 -72h-676q15 -63 65 -97t124 -34q66 0 120 32t74 64l271 -188q-9 -19 -30 -45.5t-62 -61.5t-92.5 -64t-127.5 -49t-159 -20q-180 0 -316 80.5t-205 211.5t-69 290zM244 1485h409 l133 -309h-317zM457 678h266q-4 43 -38.5 80t-94.5 37q-63 0 -96 -38t-37 -79z" />
<glyph unicode="&#xe9;" horiz-adv-x="1159" d="M39 555q0 154 65.5 279t190.5 199.5t287 74.5q265 0 404.5 -156.5t139.5 -443.5q0 -32 -4 -72h-676q15 -63 65 -97t124 -34q66 0 120 32t74 64l271 -188q-9 -19 -30 -45.5t-62 -61.5t-92.5 -64t-127.5 -49t-159 -20q-180 0 -316 80.5t-205 211.5t-69 290zM395 1176 l133 309h410l-225 -309h-318zM457 678h266q-4 43 -38.5 80t-94.5 37q-63 0 -96 -38t-37 -79z" />
<glyph unicode="&#xea;" horiz-adv-x="1159" d="M39 555q0 154 65.5 279t190.5 199.5t287 74.5q265 0 404.5 -156.5t139.5 -443.5q0 -32 -4 -72h-676q15 -63 65 -97t124 -34q66 0 120 32t74 64l271 -188q-9 -19 -30 -45.5t-62 -61.5t-92.5 -64t-127.5 -49t-159 -20q-180 0 -316 80.5t-205 211.5t-69 290zM197 1176 l200 309h402l200 -309h-325l-76 124l-76 -124h-325zM457 678h266q-4 43 -38.5 80t-94.5 37q-63 0 -96 -38t-37 -79z" />
<glyph unicode="&#xeb;" horiz-adv-x="1159" d="M39 555q0 154 65.5 279t190.5 199.5t287 74.5q265 0 404.5 -156.5t139.5 -443.5q0 -32 -4 -72h-676q15 -63 65 -97t124 -34q66 0 120 32t74 64l271 -188q-9 -19 -30 -45.5t-62 -61.5t-92.5 -64t-127.5 -49t-159 -20q-180 0 -316 80.5t-205 211.5t-69 290zM180 1337 q0 72 49.5 122t126.5 50t128 -50t51 -122t-51 -122t-128 -50t-126.5 50t-49.5 122zM457 678h266q-4 43 -38.5 80t-94.5 37q-63 0 -96 -38t-37 -79zM643 1337q0 72 48 122t126 50q75 0 125.5 -50.5t50.5 -121.5t-50.5 -121.5t-125.5 -50.5q-78 0 -126 50t-48 122z" />
<glyph unicode="&#xec;" d="M-53 1485h409l133 -309h-317zM90 0v1081h397v-1081h-397z" />
<glyph unicode="&#xed;" d="M78 1176l133 309h410l-226 -309h-317zM90 0v1081h397v-1081h-397z" />
<glyph unicode="&#xee;" d="M-109 1176l201 309h402l200 -309h-325l-76 124l-76 -124h-326zM90 0v1081h397v-1081h-397z" />
<glyph unicode="&#xef;" d="M-113 1337q0 72 49.5 122t126.5 50t128 -50t51 -122t-51 -122t-128 -50t-126.5 50t-49.5 122zM90 0v1081h397v-1081h-397zM350 1337q0 72 48 122t126 50q76 0 126 -50.5t50 -121.5t-50 -121.5t-126 -50.5q-78 0 -126 50t-48 122z" />
<glyph unicode="&#xf0;" horiz-adv-x="1224" d="M33 516q0 119 44.5 214.5t120.5 156t173.5 93t208.5 32.5q-16 42 -56 82l-325 -107l-35 234l149 49q-43 36 -137 84l217 194q163 -57 297 -149l293 98l33 -240l-123 -43q122 -124 205.5 -289t83.5 -345q0 -94 -20 -180.5t-65 -165t-110.5 -136t-163.5 -91.5t-217 -34 q-130 0 -239 43t-181.5 117t-112.5 173t-40 210zM430 516q0 -87 47.5 -144t130.5 -57t130.5 57t47.5 144q0 84 -45.5 137.5t-132.5 53.5t-132.5 -53.5t-45.5 -137.5z" />
<glyph unicode="&#xf1;" horiz-adv-x="1193" d="M90 0v1081h387v-102q35 49 107.5 89t163.5 40q186 0 276 -108.5t90 -303.5v-696h-397v637q0 59 -31.5 90t-83.5 31q-56 0 -85.5 -33t-29.5 -82v-643h-397zM209 1174q0 146 70.5 235.5t189.5 89.5q63 0 146.5 -30.5t107.5 -30.5q57 0 57 63h238q0 -146 -70.5 -235.5 t-189.5 -89.5q-63 0 -146.5 30.5t-107.5 30.5q-58 0 -58 -63h-237z" />
<glyph unicode="&#xf2;" horiz-adv-x="1277" d="M37 541q0 161 79 291t216.5 203t306.5 73t306.5 -73t216.5 -203t79 -291t-79 -291.5t-216.5 -203.5t-306.5 -73t-306.5 73t-216.5 203.5t-79 291.5zM303 1485h410l133 -309h-318zM434 541q0 -102 57.5 -164t147.5 -62t147.5 62t57.5 164t-57.5 164.5t-147.5 62.5 t-147.5 -62.5t-57.5 -164.5z" />
<glyph unicode="&#xf3;" horiz-adv-x="1277" d="M37 541q0 161 79 291t216.5 203t306.5 73t306.5 -73t216.5 -203t79 -291t-79 -291.5t-216.5 -203.5t-306.5 -73t-306.5 73t-216.5 203.5t-79 291.5zM434 541q0 -102 57.5 -164t147.5 -62t147.5 62t57.5 164t-57.5 164.5t-147.5 62.5t-147.5 -62.5t-57.5 -164.5zM446 1176 l134 309h409l-225 -309h-318z" />
<glyph unicode="&#xf4;" horiz-adv-x="1277" d="M37 541q0 161 79 291t216.5 203t306.5 73t306.5 -73t216.5 -203t79 -291t-79 -291.5t-216.5 -203.5t-306.5 -73t-306.5 73t-216.5 203.5t-79 291.5zM242 1176l200 309h402l200 -309h-325l-76 124l-76 -124h-325zM434 541q0 -102 57.5 -164t147.5 -62t147.5 62t57.5 164 t-57.5 164.5t-147.5 62.5t-147.5 -62.5t-57.5 -164.5z" />
<glyph unicode="&#xf5;" horiz-adv-x="1277" d="M37 541q0 161 79 291t216.5 203t306.5 73t306.5 -73t216.5 -203t79 -291t-79 -291.5t-216.5 -203.5t-306.5 -73t-306.5 73t-216.5 203.5t-79 291.5zM236 1174q0 146 70.5 235.5t189.5 89.5q63 0 146.5 -30.5t107.5 -30.5q57 0 57 63h237q0 -146 -70.5 -235.5 t-189.5 -89.5q-63 0 -146.5 30.5t-107.5 30.5q-57 0 -57 -63h-237zM434 541q0 -102 57.5 -164t147.5 -62t147.5 62t57.5 164t-57.5 164.5t-147.5 62.5t-147.5 -62.5t-57.5 -164.5z" />
<glyph unicode="&#xf6;" horiz-adv-x="1277" d="M37 541q0 161 79 291t216.5 203t306.5 73t306.5 -73t216.5 -203t79 -291t-79 -291.5t-216.5 -203.5t-306.5 -73t-306.5 73t-216.5 203.5t-79 291.5zM242 1337q0 72 49.5 122t126.5 50t127.5 -50t50.5 -122t-50.5 -122t-127.5 -50t-126.5 50t-49.5 122zM434 541 q0 -102 57.5 -164t147.5 -62t147.5 62t57.5 164t-57.5 164.5t-147.5 62.5t-147.5 -62.5t-57.5 -164.5zM705 1337q0 72 48 122t126 50q75 0 125.5 -50.5t50.5 -121.5t-50.5 -121.5t-125.5 -50.5q-78 0 -126 50t-48 122z" />
<glyph unicode="&#xf7;" horiz-adv-x="1153" d="M72 485v308h1009v-308h-1009zM387 217q0 77 53.5 131.5t132.5 54.5t133 -54.5t54 -131.5q0 -76 -54 -130t-133 -54t-132.5 54t-53.5 130zM387 1059q0 77 53.5 131.5t132.5 54.5t133 -54.5t54 -131.5q0 -76 -54 -130.5t-133 -54.5t-132.5 54.5t-53.5 130.5z" />
<glyph unicode="&#xf8;" horiz-adv-x="1286" d="M41 541q0 161 79 291t216.5 203t306.5 73q146 0 277 -59l79 98l175 -133l-76 -94q147 -157 147 -379q0 -161 -79 -291.5t-216.5 -203.5t-306.5 -73q-135 0 -266 54l-86 -107l-174 133l78 99q-154 157 -154 389zM438 541q0 -32 11 -78l241 299q-24 6 -47 6 q-90 0 -147.5 -62.5t-57.5 -164.5zM610 317q10 -2 33 -2q90 0 147.5 62t57.5 164q0 34 -6 61z" />
<glyph unicode="&#xf9;" horiz-adv-x="1185" d="M82 385v696h397v-637q0 -59 31.5 -89.5t83.5 -30.5q56 0 85.5 32.5t29.5 81.5v643h397v-1081h-387v102q-35 -49 -107 -89t-163 -40q-186 0 -276.5 108.5t-90.5 303.5zM254 1485h410l133 -309h-318z" />
<glyph unicode="&#xfa;" horiz-adv-x="1185" d="M82 385v696h397v-637q0 -59 31.5 -89.5t83.5 -30.5q56 0 85.5 32.5t29.5 81.5v643h397v-1081h-387v102q-35 -49 -107 -89t-163 -40q-186 0 -276.5 108.5t-90.5 303.5zM401 1176l134 309h409l-225 -309h-318z" />
<glyph unicode="&#xfb;" horiz-adv-x="1185" d="M82 385v696h397v-637q0 -59 31.5 -89.5t83.5 -30.5q56 0 85.5 32.5t29.5 81.5v643h397v-1081h-387v102q-35 -49 -107 -89t-163 -40q-186 0 -276.5 108.5t-90.5 303.5zM199 1176l200 309h402l200 -309h-325l-76 124l-76 -124h-325z" />
<glyph unicode="&#xfc;" horiz-adv-x="1185" d="M82 385v696h397v-637q0 -59 31.5 -89.5t83.5 -30.5q56 0 85.5 32.5t29.5 81.5v643h397v-1081h-387v102q-35 -49 -107 -89t-163 -40q-186 0 -276.5 108.5t-90.5 303.5zM188 1337q0 72 50 122t127 50t127.5 -50t50.5 -122t-50.5 -122t-127.5 -50t-127 50t-50 122zM651 1337 q0 72 48 122t126 50q75 0 125.5 -50.5t50.5 -121.5t-50.5 -121.5t-125.5 -50.5q-78 0 -126 50t-48 122z" />
<glyph unicode="&#xfd;" horiz-adv-x="1185" d="M12 1081h426l156 -559l166 559h414l-533 -1448h-373l146 408zM412 1176l133 309h409l-225 -309h-317z" />
<glyph unicode="&#xfe;" horiz-adv-x="1310" d="M90 -383v1864h397v-467q41 34 112.5 64t162.5 30q233 0 371.5 -157.5t138.5 -409.5q0 -253 -139 -410.5t-371 -157.5q-92 0 -162.5 30t-112.5 65v-451h-397zM475 541q0 -106 54.5 -167t144.5 -61q93 0 146.5 63t53.5 165q0 103 -53.5 164t-146.5 61q-94 0 -146.5 -64 t-52.5 -161z" />
<glyph unicode="&#xff;" horiz-adv-x="1185" d="M12 1081h426l156 -559l166 559h414l-533 -1448h-373l146 408zM188 1337q0 72 50 122t127 50t127.5 -50t50.5 -122t-50.5 -122t-127.5 -50t-127 50t-50 122zM651 1337q0 72 48 122t126 50q75 0 125.5 -50.5t50.5 -121.5t-50.5 -121.5t-125.5 -50.5q-78 0 -126 50t-48 122z " />
<glyph unicode="&#x100;" horiz-adv-x="1437" d="M8 0l496 1434h430l496 -1434h-410l-86 274h-430l-86 -274h-410zM412 1518v274h608v-274h-608zM600 600h238l-119 412z" />
<glyph unicode="&#x101;" horiz-adv-x="1128" d="M33 336q0 163 116 261.5t312 98.5q115 0 192 -41v33q0 36 -35.5 61t-105.5 25q-126 0 -264 -61l-148 258q89 61 214 99t245 38q114 0 201 -24.5t141.5 -66t88.5 -102.5t47.5 -126.5t13.5 -145.5v-643h-357l-22 59q-83 -86 -256 -86q-75 0 -142.5 23t-122 67t-86.5 114.5 t-32 158.5zM272 1190v274h609v-274h-609zM430 350q0 -40 34 -61t81 -21t80.5 21t33.5 61t-33.5 63t-82.5 23q-47 0 -80 -23t-33 -63z" />
<glyph unicode="&#x102;" horiz-adv-x="1437" d="M8 0l496 1434h430l496 -1434h-410l-86 274h-430l-86 -274h-410zM354 1833h275q0 -43 20 -75t66 -32q47 0 67.5 32t20.5 75h274q0 -147 -96.5 -235.5t-265.5 -88.5q-168 0 -264.5 88.5t-96.5 235.5zM600 600h238l-119 412z" />
<glyph unicode="&#x103;" horiz-adv-x="1128" d="M33 336q0 163 116 261.5t312 98.5q115 0 192 -41v33q0 36 -35.5 61t-105.5 25q-126 0 -264 -61l-148 258q89 61 214 99t245 38q114 0 201 -24.5t141.5 -66t88.5 -102.5t47.5 -126.5t13.5 -145.5v-643h-357l-22 59q-83 -86 -256 -86q-75 0 -142.5 23t-122 67t-86.5 114.5 t-32 158.5zM211 1503h274q0 -43 20 -74.5t66 -31.5q48 0 68 31.5t20 74.5h275q0 -147 -96.5 -235t-266.5 -88q-168 0 -264 88t-96 235zM430 350q0 -40 34 -61t81 -21t80.5 21t33.5 61t-33.5 63t-82.5 23q-47 0 -80 -23t-33 -63z" />
<glyph unicode="&#x104;" horiz-adv-x="1437" d="M8 0l496 1434h430l496 -1434q-30 -7 -59.5 -36t-29.5 -66q0 -38 26 -54t63 -16v-260q-70 -17 -144 -17q-51 0 -96 11t-85 34.5t-63.5 66.5t-23.5 101q0 85 54.5 145.5t121.5 90.5h-174l-86 274h-430l-86 -274h-410zM600 600h238l-119 412z" />
<glyph unicode="&#x105;" horiz-adv-x="1128" d="M33 336q0 163 116 261.5t312 98.5q115 0 192 -41v33q0 36 -35.5 61t-105.5 25q-126 0 -264 -61l-148 258q89 61 214 99t245 38q114 0 201 -24.5t141.5 -66t88.5 -102.5t47.5 -126.5t13.5 -145.5v-643q-27 -8 -57.5 -36.5t-30.5 -65.5q0 -38 25.5 -54t62.5 -16v-260 q-70 -17 -144 -17q-51 0 -96 11t-85 34.5t-63.5 66.5t-23.5 101q0 45 18 85.5t47.5 69.5t58 48.5t58.5 32.5h-127l-22 59q-83 -86 -256 -86q-75 0 -142.5 23t-122 67t-86.5 114.5t-32 158.5zM430 350q0 -40 34 -61t81 -21t80.5 21t33.5 61t-33.5 63t-82.5 23q-47 0 -80 -23 t-33 -63z" />
<glyph unicode="&#x106;" horiz-adv-x="1300" d="M47 719q0 154 55 289.5t154 235.5t243.5 158t315.5 58q125 0 239 -33.5t195 -89.5l-112 -356q-131 106 -301 106q-161 0 -262 -104.5t-101 -263.5q0 -162 101 -267.5t262 -105.5q169 0 301 107l112 -357q-81 -56 -195 -89.5t-239 -33.5q-227 0 -403.5 100t-270.5 269 t-94 377zM594 1489l133 309h410l-226 -309h-317z" />
<glyph unicode="&#x107;" horiz-adv-x="995" d="M37 539q0 164 79 294.5t216 202.5t307 72q92 0 174 -24t137 -62l-104 -328q-89 66 -191 66q-106 0 -164.5 -63.5t-58.5 -157.5q0 -102 66.5 -163t171.5 -61q44 0 94 15.5t86 42.5l102 -318q-125 -82 -317 -82q-266 0 -432 158t-166 408zM420 1176l133 309h410l-226 -309 h-317z" />
<glyph unicode="&#x108;" horiz-adv-x="1300" d="M47 719q0 154 55 289.5t154 235.5t243.5 158t315.5 58q125 0 239 -33.5t195 -89.5l-112 -356q-131 106 -301 106q-161 0 -262 -104.5t-101 -263.5q0 -162 101 -267.5t262 -105.5q169 0 301 107l112 -357q-81 -56 -195 -89.5t-239 -33.5q-227 0 -403.5 100t-270.5 269 t-94 377zM412 1493l200 309h402l200 -309h-325l-76 125l-76 -125h-325z" />
<glyph unicode="&#x109;" horiz-adv-x="995" d="M37 539q0 164 79 294.5t216 202.5t307 72q92 0 174 -24t137 -62l-104 -328q-89 66 -191 66q-106 0 -164.5 -63.5t-58.5 -157.5q0 -102 66.5 -163t171.5 -61q44 0 94 15.5t86 42.5l102 -318q-125 -82 -317 -82q-266 0 -432 158t-166 408zM215 1176l201 309h401l201 -309 h-326l-76 124l-75 -124h-326z" />
<glyph unicode="&#x10a;" horiz-adv-x="1300" d="M47 719q0 154 55 289.5t154 235.5t243.5 158t315.5 58q125 0 239 -33.5t195 -89.5l-112 -356q-131 106 -301 106q-161 0 -262 -104.5t-101 -263.5q0 -162 101 -267.5t262 -105.5q169 0 301 107l112 -357q-81 -56 -195 -89.5t-239 -33.5q-227 0 -403.5 100t-270.5 269 t-94 377zM639 1675q0 72 51 123t123 51t123 -51t51 -123t-51 -123t-123 -51t-123 51t-51 123z" />
<glyph unicode="&#x10b;" horiz-adv-x="995" d="M37 539q0 164 79 294.5t216 202.5t307 72q92 0 174 -24t137 -62l-104 -328q-89 66 -191 66q-106 0 -164.5 -63.5t-58.5 -157.5q0 -102 66.5 -163t171.5 -61q44 0 94 15.5t86 42.5l102 -318q-125 -82 -317 -82q-266 0 -432 158t-166 408zM461 1341q0 72 51 123.5t123 51.5 t123 -51.5t51 -123.5t-51 -123t-123 -51t-123 51t-51 123z" />
<glyph unicode="&#x10c;" horiz-adv-x="1300" d="M47 719q0 154 55 289.5t154 235.5t243.5 158t315.5 58q125 0 239 -33.5t195 -89.5l-112 -356q-131 106 -301 106q-161 0 -262 -104.5t-101 -263.5q0 -162 101 -267.5t262 -105.5q169 0 301 107l112 -357q-81 -56 -195 -89.5t-239 -33.5q-227 0 -403.5 100t-270.5 269 t-94 377zM422 1802h326l75 -125l76 125h326l-201 -309h-401z" />
<glyph unicode="&#x10d;" horiz-adv-x="995" d="M37 539q0 164 79 294.5t216 202.5t307 72q92 0 174 -24t137 -62l-104 -328q-89 66 -191 66q-106 0 -164.5 -63.5t-58.5 -157.5q0 -102 66.5 -163t171.5 -61q44 0 94 15.5t86 42.5l102 -318q-125 -82 -317 -82q-266 0 -432 158t-166 408zM221 1485h326l76 -125l75 125h326 l-201 -309h-401z" />
<glyph unicode="&#x10e;" horiz-adv-x="1400" d="M119 0v1434h467q230 0 402.5 -85t268 -248t95.5 -384q0 -330 -208 -523.5t-558 -193.5h-467zM205 1802h325l76 -125l76 125h326l-201 -309h-401zM526 344h52q161 0 255.5 96t94.5 277q0 184 -94 278.5t-256 94.5h-52v-746z" />
<glyph unicode="&#x10f;" horiz-adv-x="1312" d="M43 541q0 253 138.5 410t371.5 157q92 0 162.5 -29.5t111.5 -64.5v467h398v-1481h-369v70q-38 -38 -109.5 -67.5t-166.5 -29.5q-236 0 -386.5 159.5t-150.5 408.5zM440 541q0 -103 54 -164.5t147 -61.5q94 0 146.5 64.5t52.5 161.5q0 106 -54.5 166.5t-144.5 60.5 q-94 0 -147.5 -62.5t-53.5 -164.5zM1313 1124l14 357h285l-103 -357h-196z" />
<glyph unicode="&#x110;" horiz-adv-x="1437" d="M43 545v348h111v541h467q230 0 402.5 -85t267.5 -248t95 -384q0 -330 -208 -523.5t-557 -193.5h-467v545h-111zM561 344h51q162 0 256.5 95.5t94.5 277.5q0 184 -94 278.5t-257 94.5h-51v-197h174v-348h-174v-201z" />
<glyph unicode="&#x111;" horiz-adv-x="1343" d="M39 541q0 253 138.5 410t371.5 157q92 0 162.5 -29.5t111.5 -64.5v141h-256v236h256v90h398v-90h90v-236h-90v-1155h-369v70q-38 -38 -110 -67.5t-167 -29.5q-236 0 -386 159.5t-150 408.5zM436 541q0 -103 54 -164.5t147 -61.5q94 0 146.5 64.5t52.5 161.5 q0 106 -54.5 166.5t-144.5 60.5q-94 0 -147.5 -62.5t-53.5 -164.5z" />
<glyph unicode="&#x112;" horiz-adv-x="1019" d="M119 0v1434h803v-357h-396v-176h334v-354h-334v-191h412v-356h-819zM229 1518v274h609v-274h-609z" />
<glyph unicode="&#x113;" horiz-adv-x="1159" d="M39 555q0 154 65.5 279t190.5 199.5t287 74.5q265 0 404.5 -156.5t139.5 -443.5q0 -32 -4 -72h-676q15 -63 65 -97t124 -34q66 0 120 32t74 64l271 -188q-9 -19 -30 -45.5t-62 -61.5t-92.5 -64t-127.5 -49t-159 -20q-180 0 -316 80.5t-205 211.5t-69 290zM291 1190v274 h608v-274h-608zM457 678h266q-4 43 -38.5 80t-94.5 37q-63 0 -96 -38t-37 -79z" />
<glyph unicode="&#x114;" horiz-adv-x="1019" d="M119 0v1434h803v-357h-396v-176h334v-354h-334v-191h412v-356h-819zM168 1833h274q0 -43 20 -75t66 -32q47 0 67.5 32t20.5 75h275q0 -147 -97 -235.5t-266 -88.5q-168 0 -264 88.5t-96 235.5z" />
<glyph unicode="&#x115;" horiz-adv-x="1159" d="M39 555q0 154 65.5 279t190.5 199.5t287 74.5q265 0 404.5 -156.5t139.5 -443.5q0 -32 -4 -72h-676q15 -63 65 -97t124 -34q66 0 120 32t74 64l271 -188q-9 -19 -30 -45.5t-62 -61.5t-92.5 -64t-127.5 -49t-159 -20q-180 0 -316 80.5t-205 211.5t-69 290zM240 1503h274 q0 -43 20 -74.5t66 -31.5q48 0 68 31.5t20 74.5h275q0 -147 -96.5 -235t-266.5 -88q-168 0 -264 88t-96 235zM457 678h266q-4 43 -38.5 80t-94.5 37q-63 0 -96 -38t-37 -79z" />
<glyph unicode="&#x116;" horiz-adv-x="1019" d="M119 0v1434h803v-357h-396v-176h334v-354h-334v-191h412v-356h-819zM358 1675q0 72 51 123t123 51t123.5 -51t51.5 -123t-51.5 -123t-123.5 -51t-123 51t-51 123z" />
<glyph unicode="&#x117;" horiz-adv-x="1159" d="M39 555q0 154 65.5 279t190.5 199.5t287 74.5q265 0 404.5 -156.5t139.5 -443.5q0 -32 -4 -72h-676q15 -63 65 -97t124 -34q66 0 120 32t74 64l271 -188q-9 -19 -30 -45.5t-62 -61.5t-92.5 -64t-127.5 -49t-159 -20q-180 0 -316 80.5t-205 211.5t-69 290zM418 1341 q0 72 51 123.5t123 51.5t123 -51.5t51 -123.5t-51 -123t-123 -51t-123 51t-51 123zM457 678h266q-4 43 -38.5 80t-94.5 37q-63 0 -96 -38t-37 -79z" />
<glyph unicode="&#x118;" horiz-adv-x="1019" d="M119 0v1434h803v-357h-396v-176h334v-354h-334v-191h412v-356q-26 -8 -54 -36.5t-28 -65.5q0 -38 25.5 -54t62.5 -16v-260q-70 -17 -143 -17q-51 0 -96 11t-85.5 34.5t-64 66.5t-23.5 101q0 85 54.5 145.5t122.5 90.5h-590z" />
<glyph unicode="&#x119;" horiz-adv-x="1159" d="M39 555q0 154 65.5 279t190.5 199.5t287 74.5q265 0 404.5 -156.5t139.5 -443.5q0 -32 -4 -72h-676q15 -63 65 -97t124 -34q66 0 120 32t74 64l271 -188q-17 -35 -68.5 -87t-128.5 -91q-94 -61 -94 -131q0 -38 26.5 -57t61.5 -19v-260q-70 -17 -143 -17q-51 0 -96 11 t-85.5 34.5t-64 66.5t-23.5 101q0 69 36.5 122t90.5 87q-175 4 -307 85t-199 210.5t-67 286.5zM457 678h266q-4 43 -38.5 80t-94.5 37q-63 0 -96 -38t-37 -79z" />
<glyph unicode="&#x11a;" horiz-adv-x="1019" d="M119 0v1434h803v-357h-396v-176h334v-354h-334v-191h412v-356h-819zM123 1802h326l75 -125l76 125h326l-201 -309h-401z" />
<glyph unicode="&#x11b;" horiz-adv-x="1159" d="M39 555q0 154 65.5 279t190.5 199.5t287 74.5q265 0 404.5 -156.5t139.5 -443.5q0 -32 -4 -72h-676q15 -63 65 -97t124 -34q66 0 120 32t74 64l271 -188q-9 -19 -30 -45.5t-62 -61.5t-92.5 -64t-127.5 -49t-159 -20q-180 0 -316 80.5t-205 211.5t-69 290zM190 1485h326 l76 -125l76 125h325l-200 -309h-402zM457 678h266q-4 43 -38.5 80t-94.5 37q-63 0 -96 -38t-37 -79z" />
<glyph unicode="&#x11c;" horiz-adv-x="1570" d="M47 719q0 154 55 289.5t154 235.5t243.5 158t315.5 58q95 0 183 -18.5t150.5 -45.5t118 -64.5t88.5 -68t60 -63.5l-258 -262q-25 29 -49 50t-63 46.5t-92.5 39t-116.5 13.5q-161 0 -262 -104.5t-101 -263.5q0 -161 105 -267t272 -106q106 0 174 21t100 47v80h-231v333 h604v-630q-60 -41 -98 -65t-106.5 -58.5t-131.5 -53.5t-154 -33t-192 -14q-227 0 -403.5 100t-270.5 269t-94 377zM430 1493l201 309h401l201 -309h-326l-76 125l-75 -125h-326z" />
<glyph unicode="&#x11d;" horiz-adv-x="1300" d="M43 545q0 253 138.5 408t371.5 155q92 0 162.5 -29.5t111.5 -64.5v67h398v-944q0 -118 -34 -210.5t-91 -151.5t-137.5 -97.5t-167 -54.5t-185.5 -16q-114 0 -229 25t-193 63l113 299q164 -68 297 -68q101 0 166 27t65 88v22q-98 -81 -249 -81q-237 0 -387 157t-150 406z M252 1176l201 309h401l201 -309h-326l-76 124l-75 -124h-326zM440 545q0 -101 54 -161t147 -60q94 0 146.5 63.5t52.5 157.5q0 103 -54.5 163t-144.5 60q-93 0 -147 -62t-54 -161z" />
<glyph unicode="&#x11e;" horiz-adv-x="1570" d="M47 719q0 154 55 289.5t154 235.5t243.5 158t315.5 58q95 0 183 -18.5t150.5 -45.5t118 -64.5t88.5 -68t60 -63.5l-258 -262q-25 29 -49 50t-63 46.5t-92.5 39t-116.5 13.5q-161 0 -262 -104.5t-101 -263.5q0 -161 105 -267t272 -106q106 0 174 21t100 47v80h-231v333 h604v-630q-60 -41 -98 -65t-106.5 -58.5t-131.5 -53.5t-154 -33t-192 -14q-227 0 -403.5 100t-270.5 269t-94 377zM469 1833h274q0 -43 20 -75t66 -32q48 0 68.5 32t20.5 75h274q0 -147 -97 -235.5t-266 -88.5q-168 0 -264 88.5t-96 235.5z" />
<glyph unicode="&#x11f;" horiz-adv-x="1300" d="M43 545q0 253 138.5 408t371.5 155q92 0 162.5 -29.5t111.5 -64.5v67h398v-944q0 -118 -34 -210.5t-91 -151.5t-137.5 -97.5t-167 -54.5t-185.5 -16q-114 0 -229 25t-193 63l113 299q164 -68 297 -68q101 0 166 27t65 88v22q-98 -81 -249 -81q-237 0 -387 157t-150 406z M289 1503h274q0 -43 20 -74.5t66 -31.5q48 0 68 31.5t20 74.5h275q0 -147 -96.5 -235t-266.5 -88q-168 0 -264 88t-96 235zM440 545q0 -101 54 -161t147 -60q94 0 146.5 63.5t52.5 157.5q0 103 -54.5 163t-144.5 60q-93 0 -147 -62t-54 -161z" />
<glyph unicode="&#x120;" horiz-adv-x="1570" d="M47 719q0 154 55 289.5t154 235.5t243.5 158t315.5 58q95 0 183 -18.5t150.5 -45.5t118 -64.5t88.5 -68t60 -63.5l-258 -262q-25 29 -49 50t-63 46.5t-92.5 39t-116.5 13.5q-161 0 -262 -104.5t-101 -263.5q0 -161 105 -267t272 -106q106 0 174 21t100 47v80h-231v333 h604v-630q-60 -41 -98 -65t-106.5 -58.5t-131.5 -53.5t-154 -33t-192 -14q-227 0 -403.5 100t-270.5 269t-94 377zM670 1675q0 72 51 123t123 51t123 -51t51 -123t-51 -123t-123 -51t-123 51t-51 123z" />
<glyph unicode="&#x121;" horiz-adv-x="1300" d="M43 545q0 253 138.5 408t371.5 155q92 0 162.5 -29.5t111.5 -64.5v67h398v-944q0 -118 -34 -210.5t-91 -151.5t-137.5 -97.5t-167 -54.5t-185.5 -16q-114 0 -229 25t-193 63l113 299q164 -68 297 -68q101 0 166 27t65 88v22q-98 -81 -249 -81q-237 0 -387 157t-150 406z M440 545q0 -101 54 -161t147 -60q94 0 146.5 63.5t52.5 157.5q0 103 -54.5 163t-144.5 60q-93 0 -147 -62t-54 -161zM477 1341q0 72 51 123.5t123 51.5t123 -51.5t51 -123.5t-51 -123t-123 -51t-123 51t-51 123z" />
<glyph unicode="&#x122;" horiz-adv-x="1570" d="M47 719q0 154 55 289.5t154 235.5t243.5 158t315.5 58q95 0 183 -18.5t150.5 -45.5t118 -64.5t88.5 -68t60 -63.5l-258 -262q-25 29 -49 50t-63 46.5t-92.5 39t-116.5 13.5q-161 0 -262 -104.5t-101 -263.5q0 -161 105 -267t272 -106q106 0 174 21t100 47v80h-231v333 h604v-630q-60 -41 -98 -65t-106.5 -58.5t-131.5 -53.5t-154 -33t-192 -14q-227 0 -403.5 100t-270.5 269t-94 377zM625 -242q0 80 57 135.5t139 55.5q92 0 149.5 -61.5t57.5 -163.5q0 -121 -67.5 -237t-174.5 -183l-127 141q88 60 111 129q-71 18 -108 69.5t-37 114.5z" />
<glyph unicode="&#x123;" horiz-adv-x="1300" d="M43 545q0 253 138.5 408t371.5 155q92 0 162.5 -29.5t111.5 -64.5v67h398v-944q0 -118 -34 -210.5t-91 -151.5t-137.5 -97.5t-167 -54.5t-185.5 -16q-114 0 -229 25t-193 63l113 299q164 -68 297 -68q101 0 166 27t65 88v22q-98 -81 -249 -81q-237 0 -387 157t-150 406z M428 1382q0 121 67.5 237t174.5 183l127 -141q-88 -60 -111 -129q71 -18 108 -69.5t37 -114.5q0 -80 -57 -135.5t-139 -55.5q-92 0 -149.5 61.5t-57.5 163.5zM440 545q0 -101 54 -161t147 -60q94 0 146.5 63.5t52.5 157.5q0 103 -54.5 163t-144.5 60q-93 0 -147 -62 t-54 -161z" />
<glyph unicode="&#x124;" horiz-adv-x="1507" d="M119 0v1434h407v-539h455v539h408v-1434h-408v537h-455v-537h-407zM362 1493l201 309h402l200 -309h-325l-76 125l-76 -125h-326z" />
<glyph unicode="&#x125;" horiz-adv-x="1198" d="M90 0v1481h397v-490q38 47 104 82t150 35q102 0 177.5 -42t117.5 -114.5t62 -157.5t20 -184v-610h-397v637q0 59 -32.5 90t-84.5 31q-56 0 -86.5 -33t-30.5 -82v-643h-397zM229 1532l201 309h401l201 -309h-325l-76 125l-76 -125h-326z" />
<glyph unicode="&#x126;" horiz-adv-x="1507" d="M6 1038v260h113v136h407v-136h455v136h408v-136h112v-260h-112v-1038h-408v537h-455v-537h-407v1038h-113zM526 895h455v143h-455v-143z" />
<glyph unicode="&#x127;" horiz-adv-x="1214" d="M20 1155v236h86v90h398v-90h274v-236h-274v-164q38 47 104 82t150 35q102 0 177.5 -42t117.5 -114.5t62 -157.5t20 -184v-610h-398v637q0 59 -32 90t-84 31q-56 0 -86.5 -33t-30.5 -82v-643h-398v1155h-86z" />
<glyph unicode="&#x128;" horiz-adv-x="645" d="M-80 1495q0 146 70.5 236t189.5 90q63 0 146.5 -31t107.5 -31q58 0 58 64h237q0 -146 -70.5 -236t-189.5 -90q-63 0 -146.5 31t-107.5 31q-57 0 -57 -64h-238zM119 0v1434h407v-1434h-407z" />
<glyph unicode="&#x129;" d="M-115 1174q0 146 70.5 235.5t189.5 89.5q63 0 146.5 -30.5t107.5 -30.5q58 0 58 63h237q0 -146 -70.5 -235.5t-189.5 -89.5q-63 0 -146.5 30.5t-107.5 30.5q-57 0 -57 -63h-238zM90 0v1081h397v-1081h-397z" />
<glyph unicode="&#x12a;" horiz-adv-x="645" d="M23 1518v274h608v-274h-608zM119 0v1434h407v-1434h-407z" />
<glyph unicode="&#x12b;" d="M-14 1190v274h608v-274h-608zM90 0v1081h397v-1081h-397z" />
<glyph unicode="&#x12c;" horiz-adv-x="645" d="M-31 1833h275q0 -43 20 -75t66 -32q47 0 67.5 32t20.5 75h274q0 -147 -96.5 -235.5t-265.5 -88.5q-168 0 -264.5 88.5t-96.5 235.5zM119 0v1434h407v-1434h-407z" />
<glyph unicode="&#x12d;" d="M-68 1503h275q0 -43 20 -74.5t66 -31.5q48 0 68 31.5t20 74.5h274q0 -147 -96.5 -235t-265.5 -88q-168 0 -264.5 88t-96.5 235zM90 0v1081h397v-1081h-397z" />
<glyph unicode="&#x12e;" horiz-adv-x="645" d="M119 0v1434h407v-1434q-26 -8 -54 -36.5t-28 -65.5q0 -38 25.5 -54t62.5 -16v-260q-70 -17 -143 -17q-51 0 -96 11t-85 34.5t-63.5 66.5t-23.5 101q0 85 54.5 145.5t121.5 90.5h-178z" />
<glyph unicode="&#x12f;" d="M63 1335q0 91 65 155t157 64t157.5 -64t65.5 -155q0 -89 -65.5 -153t-157.5 -64t-157 64t-65 153zM84 -236q0 85 54.5 145.5t121.5 90.5h-170v1081h397v-1081q-25 -8 -52 -36.5t-27 -65.5q0 -38 25.5 -54t62.5 -16v-260q-70 -17 -144 -17q-51 0 -96 11t-85 34.5 t-63.5 66.5t-23.5 101z" />
<glyph unicode="&#x130;" horiz-adv-x="645" d="M119 0v1434h407v-1434h-407zM156 1675q0 72 51 123t123 51t123 -51t51 -123t-51 -123t-123 -51t-123 51t-51 123z" />
<glyph unicode="&#x131;" d="M90 0v1081h397v-1081h-397z" />
<glyph unicode="&#x132;" horiz-adv-x="1482" d="M119 0v1434h407v-1434h-407zM684 10l49 352q58 -8 107 -8q59 0 87.5 32.5t28.5 76.5v971h408v-1049q0 -89 -24 -158t-64.5 -113.5t-99 -73t-123.5 -40.5t-142 -12q-140 0 -227 22z" />
<glyph unicode="&#x133;" horiz-adv-x="1155" d="M78 1341q0 85 61 142t150 57t151 -57t62 -142q0 -84 -62 -140t-151 -56t-150 56t-61 140zM90 0v1081h397v-1081h-397zM489 -61q27 -2 52 -2q62 0 94.5 26.5t32.5 73.5v1044h397v-1077q0 -108 -36.5 -186t-104 -123.5t-154.5 -66.5t-197 -21q-44 0 -84 8v324zM655 1341 q0 85 61 142t150 57t151 -57t62 -142q0 -84 -62 -140t-151 -56t-150 56t-61 140z" />
<glyph unicode="&#x134;" horiz-adv-x="837" d="M37 10l49 352q58 -8 107 -8q59 0 87.5 32.5t28.5 76.5v971h408v-1049q0 -89 -24 -158t-64.5 -113.5t-99 -73t-123.5 -40.5t-142 -12q-140 0 -227 22zM96 1493l201 309h401l201 -309h-326l-75 125l-76 -125h-326z" />
<glyph unicode="&#x135;" d="M-111 1176l201 309h402l200 -309h-325l-76 124l-76 -124h-326zM-88 -61q26 -2 51 -2q62 0 94.5 26.5t32.5 73.5v1044h397v-1077q0 -397 -491 -397q-44 0 -84 8v324z" />
<glyph unicode="&#x136;" horiz-adv-x="1378" d="M119 0v1434h407v-574l373 574h453l-478 -686l494 -748h-465l-377 586v-586h-407zM506 -242q0 80 57 135.5t139 55.5q92 0 149.5 -61.5t57.5 -163.5q0 -121 -67.5 -237.5t-173.5 -182.5l-127 141q87 59 110 129q-71 18 -108 69.5t-37 114.5z" />
<glyph unicode="&#x137;" horiz-adv-x="1210" d="M90 0v1481h397v-819l254 419h445l-344 -497l372 -584h-466l-261 477v-477h-397zM406 -242q0 80 57 135.5t139 55.5q92 0 149.5 -61.5t57.5 -163.5q0 -121 -67.5 -237t-174.5 -183l-127 141q88 60 111 129q-71 18 -108 69.5t-37 114.5z" />
<glyph unicode="&#x138;" horiz-adv-x="1214" d="M90 0v1081h397v-419l254 419h445l-344 -497l372 -584h-466l-261 477v-477h-397z" />
<glyph unicode="&#x139;" horiz-adv-x="960" d="M119 0v1434h407v-1078h412v-356h-819zM156 1489l133 309h409l-225 -309h-317z" />
<glyph unicode="&#x13a;" d="M90 0v1481h397v-1481h-397zM125 1526l133 309h410l-226 -309h-317z" />
<glyph unicode="&#x13b;" horiz-adv-x="960" d="M119 0v1434h407v-1078h412v-356h-819zM315 -242q0 79 57.5 135t139.5 56q92 0 149.5 -61.5t57.5 -163.5q0 -121 -67.5 -237t-174.5 -183l-127 141q88 60 111 129q-71 18 -108.5 69.5t-37.5 114.5z" />
<glyph unicode="&#x13c;" d="M90 0v1481h397v-1481h-397zM90 -242q0 79 57.5 135t139.5 56q92 0 149.5 -61.5t57.5 -163.5q0 -121 -67.5 -237t-174.5 -183l-127 141q88 60 111 129q-71 18 -108.5 69.5t-37.5 114.5z" />
<glyph unicode="&#x13d;" horiz-adv-x="960" d="M119 0v1434h407v-1078h412v-356h-819zM651 1077l15 357h284l-102 -357h-197z" />
<glyph unicode="&#x13e;" d="M90 0v1481h397v-1481h-397zM571 1124l15 357h284l-102 -357h-197z" />
<glyph unicode="&#x13f;" horiz-adv-x="1017" d="M119 0v1434h407v-1078h412v-356h-819zM600 754q0 96 66 162.5t165 66.5t165.5 -66.5t66.5 -162.5q0 -93 -66.5 -159.5t-165.5 -66.5t-165 66t-66 160z" />
<glyph unicode="&#x140;" horiz-adv-x="1032" d="M90 0v1481h397v-1481h-397zM590 776q0 96 66 163t165 67t165.5 -67t66.5 -163q0 -93 -66.5 -159t-165.5 -66t-165 66t-66 159z" />
<glyph unicode="&#x141;" horiz-adv-x="985" d="M31 309v363l112 59v703h408v-486l194 103v-375l-194 -96v-224h412v-356h-820v367z" />
<glyph unicode="&#x142;" horiz-adv-x="665" d="M37 389v367l102 53v672h398v-449l112 62v-373l-112 -62v-659h-398v442z" />
<glyph unicode="&#x143;" horiz-adv-x="1515" d="M119 0v1434h416l460 -813v813h402v-1434h-406l-473 801v-801h-399zM582 1489l133 309h409l-225 -309h-317z" />
<glyph unicode="&#x144;" horiz-adv-x="1193" d="M90 0v1081h387v-102q35 49 107.5 89t163.5 40q186 0 276 -108.5t90 -303.5v-696h-397v637q0 59 -31.5 90t-83.5 31q-56 0 -85.5 -33t-29.5 -82v-643h-397zM424 1176l133 309h410l-226 -309h-317z" />
<glyph unicode="&#x145;" horiz-adv-x="1507" d="M119 0v1434h416l460 -813v813h402v-1434h-406l-473 801v-801h-399zM565 -242q0 79 57.5 135t139.5 56q92 0 149.5 -61.5t57.5 -163.5q0 -121 -67.5 -237t-174.5 -183l-127 141q88 60 111 129q-71 18 -108.5 69.5t-37.5 114.5z" />
<glyph unicode="&#x146;" horiz-adv-x="1193" d="M90 0v1081h387v-102q35 49 107.5 89t163.5 40q186 0 276 -108.5t90 -303.5v-696h-397v637q0 59 -31.5 90t-83.5 31q-56 0 -85.5 -33t-29.5 -82v-643h-397zM408 -242q0 80 57 135.5t139 55.5q92 0 149.5 -61.5t57.5 -163.5q0 -121 -67.5 -237t-174.5 -183l-127 141 q88 60 111 129q-71 18 -108 69.5t-37 114.5z" />
<glyph unicode="&#x147;" horiz-adv-x="1515" d="M119 0v1434h416l460 -813v813h402v-1434h-406l-473 801v-801h-399zM375 1802h325l76 -125l76 125h326l-201 -309h-402z" />
<glyph unicode="&#x148;" horiz-adv-x="1193" d="M90 0v1081h387v-102q35 49 107.5 89t163.5 40q186 0 276 -108.5t90 -303.5v-696h-397v637q0 59 -31.5 90t-83.5 31q-56 0 -85.5 -33t-29.5 -82v-643h-397zM188 1485h326l76 -125l76 125h325l-200 -309h-402z" />
<glyph unicode="&#x149;" horiz-adv-x="1433" d="M-96 1323q0 79 57 134.5t139 55.5q92 0 149.5 -61.5t57.5 -163.5q0 -121 -67.5 -237.5t-173.5 -182.5l-127 142q87 59 110 129q-71 18 -108 69.5t-37 114.5zM328 0v1081h387v-102q35 49 107 89t163 40q186 0 276.5 -108.5t90.5 -303.5v-696h-398v637q0 59 -31 90t-83 31 q-56 0 -85.5 -33t-29.5 -82v-643h-397z" />
<glyph unicode="&#x14a;" horiz-adv-x="1507" d="M119 0v1434h416l460 -813v813h402v-1452q0 -398 -447 -398q-130 0 -221 23l49 342q68 -10 119 -10t74.5 16t23.5 53l-477 793v-801h-399z" />
<glyph unicode="&#x14b;" horiz-adv-x="1193" d="M90 0v1081h387v-102q35 49 107.5 89t163.5 40q186 0 276 -108.5t90 -303.5v-696q0 -105 -36.5 -182t-104 -122.5t-154.5 -67t-196 -21.5q-44 0 -84 8v324q26 -2 51 -2q62 0 94.5 26.5t32.5 73.5v600q0 59 -31.5 90t-83.5 31q-56 0 -85.5 -33t-29.5 -82v-643h-397z" />
<glyph unicode="&#x14c;" horiz-adv-x="1642" d="M47 719q0 155 55 290.5t154 235.5t245 157.5t320 57.5t320 -57.5t245 -157.5t154 -235.5t55 -290.5q0 -157 -55 -293.5t-154 -237t-245 -158t-320 -57.5t-320 57.5t-245 158t-154 237t-55 293.5zM473 719q0 -163 96.5 -268t251.5 -105t251.5 105t96.5 268 q0 159 -96.5 263.5t-251.5 104.5t-251.5 -104.5t-96.5 -263.5zM516 1518v274h608v-274h-608z" />
<glyph unicode="&#x14d;" horiz-adv-x="1277" d="M37 541q0 161 79 291t216.5 203t306.5 73t306.5 -73t216.5 -203t79 -291t-79 -291.5t-216.5 -203.5t-306.5 -73t-306.5 73t-216.5 203.5t-79 291.5zM342 1190v274h608v-274h-608zM434 541q0 -102 57.5 -164t147.5 -62t147.5 62t57.5 164t-57.5 164.5t-147.5 62.5 t-147.5 -62.5t-57.5 -164.5z" />
<glyph unicode="&#x14e;" horiz-adv-x="1642" d="M47 719q0 155 55 290.5t154 235.5t245 157.5t320 57.5t320 -57.5t245 -157.5t154 -235.5t55 -290.5q0 -157 -55 -293.5t-154 -237t-245 -158t-320 -57.5t-320 57.5t-245 158t-154 237t-55 293.5zM463 1833h274q0 -43 20 -75t66 -32q47 0 67.5 32t20.5 75h275 q0 -147 -97 -235.5t-266 -88.5q-168 0 -264 88.5t-96 235.5zM473 719q0 -163 96.5 -268t251.5 -105t251.5 105t96.5 268q0 159 -96.5 263.5t-251.5 104.5t-251.5 -104.5t-96.5 -263.5z" />
<glyph unicode="&#x14f;" horiz-adv-x="1277" d="M37 541q0 161 79 291t216.5 203t306.5 73t306.5 -73t216.5 -203t79 -291t-79 -291.5t-216.5 -203.5t-306.5 -73t-306.5 73t-216.5 203.5t-79 291.5zM276 1503h275q0 -43 20 -74.5t66 -31.5q48 0 68 31.5t20 74.5h274q0 -147 -96.5 -235t-265.5 -88q-168 0 -264.5 88 t-96.5 235zM434 541q0 -102 57.5 -164t147.5 -62t147.5 62t57.5 164t-57.5 164.5t-147.5 62.5t-147.5 -62.5t-57.5 -164.5z" />
<glyph unicode="&#x150;" horiz-adv-x="1642" d="M47 719q0 155 55 290.5t154 235.5t245 157.5t320 57.5t320 -57.5t245 -157.5t154 -235.5t55 -290.5q0 -157 -55 -293.5t-154 -237t-245 -158t-320 -57.5t-320 57.5t-245 158t-154 237t-55 293.5zM406 1489l133 309h389l-226 -309h-296zM473 719q0 -163 96.5 -268 t251.5 -105t251.5 105t96.5 268q0 159 -96.5 263.5t-251.5 104.5t-251.5 -104.5t-96.5 -263.5zM854 1489l133 309h389l-225 -309h-297z" />
<glyph unicode="&#x151;" horiz-adv-x="1277" d="M37 541q0 161 79 291t216.5 203t306.5 73t306.5 -73t216.5 -203t79 -291t-79 -291.5t-216.5 -203.5t-306.5 -73t-306.5 73t-216.5 203.5t-79 291.5zM242 1176l133 309h389l-225 -309h-297zM434 541q0 -102 57.5 -164t147.5 -62t147.5 62t57.5 164t-57.5 164.5 t-147.5 62.5t-147.5 -62.5t-57.5 -164.5zM690 1176l133 309h389l-225 -309h-297z" />
<glyph unicode="&#x152;" horiz-adv-x="2086" d="M47 719q0 155 55 290.5t154 235.5t245 157.5t320 57.5q111 0 221 -26h947v-357h-480q45 -86 66 -176h352v-354h-350q-22 -106 -68 -191h496v-356h-963q-115 -27 -221 -27q-174 0 -320 57.5t-245 158t-154 237t-55 293.5zM473 719q0 -163 96.5 -268t251.5 -105t251.5 105 t96.5 268q0 159 -96.5 263.5t-251.5 104.5t-251.5 -104.5t-96.5 -263.5z" />
<glyph unicode="&#x153;" horiz-adv-x="1964" d="M37 541q0 161 79 291t216.5 203t306.5 73q224 0 389 -127q143 127 358 127q265 0 405 -156.5t140 -443.5q0 -32 -4 -72h-676q15 -63 65 -97t124 -34q66 0 120 32t74 64l271 -188q-9 -19 -30 -45.5t-62 -61.5t-92.5 -64t-127.5 -49t-159 -20q-237 0 -396 136 q-164 -136 -399 -136q-169 0 -306.5 73t-216.5 203.5t-79 291.5zM434 541q0 -102 57.5 -164t147.5 -62t147.5 62t57.5 164t-57.5 164.5t-147.5 62.5t-147.5 -62.5t-57.5 -164.5zM1262 678h266q-4 43 -38.5 80t-94.5 37q-63 0 -96 -38t-37 -79z" />
<glyph unicode="&#x154;" horiz-adv-x="1294" d="M119 0v1434h506q262 0 394 -118.5t132 -334.5q0 -118 -49 -220t-139 -159l327 -602h-448l-242 506h-74v-506h-407zM385 1489l133 309h410l-226 -309h-317zM526 838h68q67 0 104 36t37 93q0 60 -36 92.5t-105 32.5h-68v-254z" />
<glyph unicode="&#x155;" horiz-adv-x="798" d="M90 0v1081h387v-137q39 76 115.5 120t165.5 44v-387q-28 8 -64 8q-99 0 -153 -59.5t-54 -165.5v-504h-397zM211 1176l133 309h410l-226 -309h-317z" />
<glyph unicode="&#x156;" horiz-adv-x="1294" d="M119 0v1434h506q262 0 394 -118.5t132 -334.5q0 -118 -49 -220t-139 -159l327 -602h-448l-242 506h-74v-506h-407zM465 -242q0 79 57.5 135t139.5 56q92 0 149 -61.5t57 -163.5q0 -121 -67.5 -237.5t-173.5 -182.5l-127 141q87 59 110 129q-71 18 -108 69.5t-37 114.5z M526 838h68q67 0 104 36t37 93q0 60 -36 92.5t-105 32.5h-68v-254z" />
<glyph unicode="&#x157;" horiz-adv-x="798" d="M90 0v1081h387v-137q39 76 115.5 120t165.5 44v-387q-28 8 -64 8q-99 0 -153 -59.5t-54 -165.5v-504h-397zM113 -242q0 80 57 135.5t139 55.5q92 0 149.5 -61.5t57.5 -163.5q0 -121 -67.5 -237t-174.5 -183l-127 141q88 60 111 129q-71 18 -108 69.5t-37 114.5z" />
<glyph unicode="&#x158;" horiz-adv-x="1294" d="M119 0v1434h506q262 0 394 -118.5t132 -334.5q0 -118 -49 -220t-139 -159l327 -602h-448l-242 506h-74v-506h-407zM184 1802h326l76 -125l76 125h325l-201 -309h-401zM526 838h68q67 0 104 36t37 93q0 60 -36 92.5t-105 32.5h-68v-254z" />
<glyph unicode="&#x159;" horiz-adv-x="798" d="M4 1485h326l76 -125l75 125h326l-201 -309h-401zM90 0v1081h387v-137q39 76 115.5 120t165.5 44v-387q-28 8 -64 8q-99 0 -153 -59.5t-54 -165.5v-504h-397z" />
<glyph unicode="&#x15a;" horiz-adv-x="1118" d="M25 322l340 167q32 -59 87 -100t109 -41q45 0 67.5 17.5t22.5 46.5q0 26 -25 49.5t-66 42t-93.5 43.5t-107 51t-107 66t-93.5 87t-66 116t-25 151q0 203 135.5 322.5t359.5 119.5q94 0 173.5 -26t130.5 -63t91.5 -88t60.5 -90.5t34 -80.5l-338 -151q-15 31 -25 47 t-29.5 39t-46 34t-61.5 11q-36 0 -57 -18t-21 -48q0 -28 25.5 -53.5t66.5 -44.5t94 -43.5t108 -48.5t108 -61.5t94 -81.5t66.5 -109t25.5 -142q0 -211 -135.5 -340t-378.5 -129q-96 0 -180.5 27t-140 66.5t-100 90t-67.5 90t-36 75.5zM385 1489l133 309h410l-226 -309h-317z " />
<glyph unicode="&#x15b;" horiz-adv-x="942" d="M20 145l218 217q110 -75 231 -75q37 0 55.5 11t18.5 28q0 18 -27 32t-70 26.5t-95 28.5t-104 43.5t-95 64.5t-70 98t-27 139q0 157 126 253.5t317 96.5q253 0 407 -178l-256 -203q-78 70 -160 70q-30 0 -45.5 -11t-15.5 -26q0 -21 27 -37.5t71 -30t96.5 -29.5t105 -42 t96.5 -61t71 -92t27 -130q0 -175 -123.5 -270t-327.5 -95q-143 0 -268 52t-183 120zM305 1176l133 309h410l-225 -309h-318z" />
<glyph unicode="&#x15c;" horiz-adv-x="1118" d="M25 322l340 167q32 -59 87 -100t109 -41q45 0 67.5 17.5t22.5 46.5q0 26 -25 49.5t-66 42t-93.5 43.5t-107 51t-107 66t-93.5 87t-66 116t-25 151q0 203 135.5 322.5t359.5 119.5q94 0 173.5 -26t130.5 -63t91.5 -88t60.5 -90.5t34 -80.5l-338 -151q-15 31 -25 47 t-29.5 39t-46 34t-61.5 11q-36 0 -57 -18t-21 -48q0 -28 25.5 -53.5t66.5 -44.5t94 -43.5t108 -48.5t108 -61.5t94 -81.5t66.5 -109t25.5 -142q0 -211 -135.5 -340t-378.5 -129q-96 0 -180.5 27t-140 66.5t-100 90t-67.5 90t-36 75.5zM170 1493l201 309h401l201 -309h-326 l-76 125l-75 -125h-326z" />
<glyph unicode="&#x15d;" horiz-adv-x="942" d="M20 145l218 217q110 -75 231 -75q37 0 55.5 11t18.5 28q0 18 -27 32t-70 26.5t-95 28.5t-104 43.5t-95 64.5t-70 98t-27 139q0 157 126 253.5t317 96.5q253 0 407 -178l-256 -203q-78 70 -160 70q-30 0 -45.5 -11t-15.5 -26q0 -21 27 -37.5t71 -30t96.5 -29.5t105 -42 t96.5 -61t71 -92t27 -130q0 -175 -123.5 -270t-327.5 -95q-143 0 -268 52t-183 120zM102 1176l201 309h402l200 -309h-325l-76 124l-76 -124h-326z" />
<glyph unicode="&#x15e;" horiz-adv-x="1118" d="M25 322l340 167q32 -59 87 -100t109 -41q45 0 67.5 17.5t22.5 46.5q0 26 -25 49.5t-66 42t-93.5 43.5t-107 51t-107 66t-93.5 87t-66 116t-25 151q0 203 135.5 322.5t359.5 119.5q94 0 173.5 -26t130.5 -63t91.5 -88t60.5 -90.5t34 -80.5l-338 -151q-15 31 -25 47 t-29.5 39t-46 34t-61.5 11q-36 0 -57 -18t-21 -48q0 -28 25.5 -53.5t66.5 -44.5t94 -43.5t108 -48.5t108 -61.5t94 -81.5t66.5 -109t25.5 -142q0 -190 -111 -314.5t-313 -147.5l-6 -46q72 -20 116 -71.5t44 -126.5q0 -111 -80.5 -169.5t-206.5 -58.5q-82 0 -152 29l49 178 q40 -10 72 -10q30 0 49 14t19 33q0 25 -27.5 37t-58.5 12l-39 -4l31 185q-76 12 -143.5 43.5t-112.5 68.5t-81.5 82t-56 80t-30.5 66z" />
<glyph unicode="&#x15f;" horiz-adv-x="942" d="M20 145l218 217q110 -75 231 -75q37 0 55.5 11t18.5 28q0 18 -27 32t-70 26.5t-95 28.5t-104 43.5t-95 64.5t-70 98t-27 139q0 157 126 253.5t317 96.5q253 0 407 -178l-256 -203q-78 70 -160 70q-30 0 -45.5 -11t-15.5 -26q0 -21 27 -37.5t71 -30t96.5 -29.5t105 -42 t96.5 -61t71 -92t27 -130q0 -155 -97.5 -247t-265.5 -111l-6 -46q72 -20 116 -71.5t44 -126.5q0 -111 -80.5 -169.5t-206.5 -58.5q-82 0 -152 29l50 178q40 -10 71 -10q30 0 49 14t19 33q0 25 -27.5 37t-58.5 12l-39 -4l31 185q-115 16 -209.5 62.5t-139.5 100.5z" />
<glyph unicode="&#x160;" horiz-adv-x="1118" d="M25 322l340 167q32 -59 87 -100t109 -41q45 0 67.5 17.5t22.5 46.5q0 26 -25 49.5t-66 42t-93.5 43.5t-107 51t-107 66t-93.5 87t-66 116t-25 151q0 203 135.5 322.5t359.5 119.5q94 0 173.5 -26t130.5 -63t91.5 -88t60.5 -90.5t34 -80.5l-338 -151q-15 31 -25 47 t-29.5 39t-46 34t-61.5 11q-36 0 -57 -18t-21 -48q0 -28 25.5 -53.5t66.5 -44.5t94 -43.5t108 -48.5t108 -61.5t94 -81.5t66.5 -109t25.5 -142q0 -211 -135.5 -340t-378.5 -129q-96 0 -180.5 27t-140 66.5t-100 90t-67.5 90t-36 75.5zM166 1802h326l75 -125l76 125h326 l-201 -309h-401z" />
<glyph unicode="&#x161;" horiz-adv-x="942" d="M20 145l218 217q110 -75 231 -75q37 0 55.5 11t18.5 28q0 18 -27 32t-70 26.5t-95 28.5t-104 43.5t-95 64.5t-70 98t-27 139q0 157 126 253.5t317 96.5q253 0 407 -178l-256 -203q-78 70 -160 70q-30 0 -45.5 -11t-15.5 -26q0 -21 27 -37.5t71 -30t96.5 -29.5t105 -42 t96.5 -61t71 -92t27 -130q0 -175 -123.5 -270t-327.5 -95q-143 0 -268 52t-183 120zM104 1485h326l76 -125l76 125h325l-200 -309h-402z" />
<glyph unicode="&#x162;" horiz-adv-x="1067" d="M37 1077v357h997v-357h-297v-1077h-407v1077h-293zM334 -242q0 80 57 135.5t139 55.5q92 0 149.5 -61.5t57.5 -163.5q0 -121 -67.5 -237.5t-173.5 -182.5l-127 141q87 59 110 129q-71 18 -108 69.5t-37 114.5z" />
<glyph unicode="&#x163;" horiz-adv-x="776" d="M31 768v313h112v228h387v-228h175v-313h-175v-354q0 -86 142 -86l39 2v-334q-46 -12 -144 -12q-434 0 -434 426v358h-102zM221 -242q0 79 57.5 135t139.5 56q92 0 149.5 -61.5t57.5 -163.5q0 -121 -67.5 -237t-174.5 -183l-127 141q88 60 111 129q-71 18 -108.5 69.5 t-37.5 114.5z" />
<glyph unicode="&#x164;" horiz-adv-x="1067" d="M37 1077v357h997v-357h-297v-1077h-407v1077h-293zM141 1802h326l76 -125l75 125h326l-201 -309h-401z" />
<glyph unicode="&#x165;" horiz-adv-x="776" d="M31 768v313h112v228h387v-228h175v-313h-175v-354q0 -86 142 -86l39 2v-334q-46 -12 -144 -12q-434 0 -434 426v358h-102zM584 1124l14 357h285l-103 -357h-196z" />
<glyph unicode="&#x166;" horiz-adv-x="1067" d="M37 1077v357h997v-357h-297v-217h221v-285h-221v-575h-407v575h-221v285h221v217h-293z" />
<glyph unicode="&#x167;" horiz-adv-x="776" d="M31 424v246h102v98h-102v313h110v228h389v-228h175v-313h-175v-98h148v-246h-148v-10q0 -86 142 -86l39 2v-334q-46 -12 -144 -12q-434 0 -434 426v14h-102z" />
<glyph unicode="&#x168;" horiz-adv-x="1486" d="M119 561v873h407v-875q0 -100 58.5 -158.5t158.5 -58.5t159 58.5t59 158.5v875h407v-873q0 -266 -164.5 -427t-460.5 -161t-460 161t-164 427zM352 1495q0 146 70.5 236t189.5 90q63 0 146.5 -31t107.5 -31q58 0 58 64h237q0 -146 -70.5 -236t-189.5 -90q-63 0 -146.5 31 t-107.5 31q-57 0 -57 -64h-238z" />
<glyph unicode="&#x169;" horiz-adv-x="1185" d="M82 385v696h397v-637q0 -59 31.5 -89.5t83.5 -30.5q56 0 85.5 32.5t29.5 81.5v643h397v-1081h-387v102q-35 -49 -107 -89t-163 -40q-186 0 -276.5 108.5t-90.5 303.5zM195 1174q0 146 70.5 235.5t189.5 89.5q63 0 146.5 -30.5t107.5 -30.5q57 0 57 63h238 q0 -146 -71 -235.5t-190 -89.5q-63 0 -146.5 30.5t-107.5 30.5q-57 0 -57 -63h-237z" />
<glyph unicode="&#x16a;" horiz-adv-x="1486" d="M119 561v873h407v-875q0 -100 58.5 -158.5t158.5 -58.5t159 58.5t59 158.5v875h407v-873q0 -266 -164.5 -427t-460.5 -161t-460 161t-164 427zM444 1518v274h609v-274h-609z" />
<glyph unicode="&#x16b;" horiz-adv-x="1185" d="M82 385v696h397v-637q0 -59 31.5 -89.5t83.5 -30.5q56 0 85.5 32.5t29.5 81.5v643h397v-1081h-387v102q-35 -49 -107 -89t-163 -40q-186 0 -276.5 108.5t-90.5 303.5zM299 1190v274h608v-274h-608z" />
<glyph unicode="&#x16c;" horiz-adv-x="1486" d="M119 561v873h407v-875q0 -100 58.5 -158.5t158.5 -58.5t159 58.5t59 158.5v875h407v-873q0 -266 -164.5 -427t-460.5 -161t-460 161t-164 427zM399 1833h275q0 -43 20 -75t66 -32q47 0 67.5 32t20.5 75h274q0 -147 -96.5 -235.5t-265.5 -88.5q-168 0 -264.5 88.5 t-96.5 235.5z" />
<glyph unicode="&#x16d;" horiz-adv-x="1185" d="M82 385v696h397v-637q0 -59 31.5 -89.5t83.5 -30.5q56 0 85.5 32.5t29.5 81.5v643h397v-1081h-387v102q-35 -49 -107 -89t-163 -40q-186 0 -276.5 108.5t-90.5 303.5zM242 1503h274q0 -43 20 -74.5t66 -31.5q48 0 68 31.5t20 74.5h275q0 -147 -96.5 -235t-266.5 -88 q-168 0 -264 88t-96 235z" />
<glyph unicode="&#x16e;" horiz-adv-x="1486" d="M119 561v873h407v-875q0 -100 58.5 -158.5t158.5 -58.5t159 58.5t59 158.5v875h407v-873q0 -266 -164.5 -427t-460.5 -161t-460 161t-164 427zM496 1710q0 100 73 163.5t181 63.5q110 0 183 -63t73 -162q0 -100 -73 -163.5t-183 -63.5q-107 0 -180.5 63.5t-73.5 161.5z M680 1712q0 -34 20 -55t52 -21t51.5 21t19.5 55q0 33 -19.5 53.5t-51.5 20.5t-52 -21t-20 -53z" />
<glyph unicode="&#x16f;" horiz-adv-x="1185" d="M82 385v696h397v-637q0 -59 31.5 -89.5t83.5 -30.5q56 0 85.5 32.5t29.5 81.5v643h397v-1081h-387v102q-35 -49 -107 -89t-163 -40q-186 0 -276.5 108.5t-90.5 303.5zM350 1360q0 100 73 163.5t181 63.5q110 0 183 -63t73 -162q0 -100 -73 -163.5t-183 -63.5 q-107 0 -180.5 63.5t-73.5 161.5zM535 1362q0 -34 19.5 -55t51.5 -21t52 21t20 55q0 32 -20 53t-52 21t-51.5 -20.5t-19.5 -53.5z" />
<glyph unicode="&#x170;" horiz-adv-x="1486" d="M119 561v873h407v-875q0 -100 58.5 -158.5t158.5 -58.5t159 58.5t59 158.5v875h407v-873q0 -266 -164.5 -427t-460.5 -161t-460 161t-164 427zM338 1489l133 309h389l-225 -309h-297zM786 1489l134 309h389l-226 -309h-297z" />
<glyph unicode="&#x171;" horiz-adv-x="1185" d="M82 385v696h397v-637q0 -59 31.5 -89.5t83.5 -30.5q56 0 85.5 32.5t29.5 81.5v643h397v-1081h-387v102q-35 -49 -107 -89t-163 -40q-186 0 -276.5 108.5t-90.5 303.5zM186 1176l133 309h390l-226 -309h-297zM635 1176l133 309h389l-225 -309h-297z" />
<glyph unicode="&#x172;" horiz-adv-x="1486" d="M119 561v873h407v-875q0 -100 58.5 -158.5t158.5 -58.5t159 58.5t59 158.5v875h407v-873q0 -212 -106.5 -360t-303.5 -201q-26 -8 -53.5 -36.5t-27.5 -65.5q0 -38 25.5 -54t62.5 -16v-260q-70 -17 -144 -17q-51 0 -96 11t-85 34.5t-63.5 66.5t-23.5 101q0 70 37.5 123 t91.5 88q-269 17 -416 175.5t-147 410.5z" />
<glyph unicode="&#x173;" horiz-adv-x="1185" d="M82 385v696h397v-637q0 -59 31.5 -89.5t83.5 -30.5q56 0 85.5 32.5t29.5 81.5v643h397v-1081q-30 -7 -59 -36t-29 -66q0 -38 25.5 -54t62.5 -16v-260q-70 -17 -143 -17q-51 0 -96 11t-85.5 34.5t-64 66.5t-23.5 101q0 85 54.5 145.5t121.5 90.5h-151v102 q-35 -49 -107 -89t-163 -40q-186 0 -276.5 108.5t-90.5 303.5z" />
<glyph unicode="&#x174;" horiz-adv-x="2105" d="M14 1434h437l190 -953l229 953h365l229 -953l191 953h436l-373 -1434h-461l-204 823l-205 -823h-463zM653 1493l201 309h401l201 -309h-326l-75 125l-76 -125h-326z" />
<glyph unicode="&#x175;" horiz-adv-x="1751" d="M14 1081h435l110 -659q2 9 133 659h369l131 -659l111 659h436l-293 -1081h-449l-123 545l-120 -545h-449zM475 1176l201 309h401l201 -309h-326l-75 124l-76 -124h-326z" />
<glyph unicode="&#x176;" horiz-adv-x="1318" d="M12 1434h457l190 -433l199 433h449l-445 -793v-641h-405v641zM260 1493l201 309h401l201 -309h-326l-75 125l-76 -125h-326z" />
<glyph unicode="&#x177;" horiz-adv-x="1185" d="M12 1081h426l156 -559l166 559h414l-533 -1448h-373l146 408zM197 1176l200 309h402l200 -309h-325l-76 124l-76 -124h-325z" />
<glyph unicode="&#x178;" horiz-adv-x="1318" d="M12 1434h457l190 -433l199 433h449l-445 -793v-641h-405v641zM254 1657q0 72 49.5 122t126.5 50t127.5 -50t50.5 -122t-50.5 -122t-127.5 -50t-126.5 50t-49.5 122zM717 1657q0 72 48 122t126 50q75 0 125.5 -50.5t50.5 -121.5t-50.5 -121.5t-125.5 -50.5q-78 0 -126 50 t-48 122z" />
<glyph unicode="&#x179;" horiz-adv-x="1277" d="M63 0v250l590 831h-575v353h1126v-248l-598 -834h604v-352h-1147zM420 1489l133 309h410l-226 -309h-317z" />
<glyph unicode="&#x17a;" horiz-adv-x="987" d="M55 0v229l373 529h-367v323h871v-231l-379 -526h381v-324h-879zM299 1176l133 309h410l-226 -309h-317z" />
<glyph unicode="&#x17b;" horiz-adv-x="1277" d="M63 0v250l590 831h-575v353h1126v-248l-598 -834h604v-352h-1147zM465 1675q0 72 51 123t123 51t123 -51t51 -123t-51 -123t-123 -51t-123 51t-51 123z" />
<glyph unicode="&#x17c;" horiz-adv-x="987" d="M55 0v229l373 529h-367v323h871v-231l-379 -526h381v-324h-879zM336 1341q0 72 51 123.5t123 51.5t123 -51.5t51 -123.5t-51 -123t-123 -51t-123 51t-51 123z" />
<glyph unicode="&#x17d;" horiz-adv-x="1277" d="M63 0v250l590 831h-575v353h1126v-248l-598 -834h604v-352h-1147zM238 1802h325l76 -125l76 125h325l-200 -309h-402z" />
<glyph unicode="&#x17e;" horiz-adv-x="987" d="M55 0v229l373 529h-367v323h871v-231l-379 -526h381v-324h-879zM106 1485h326l76 -125l76 125h325l-200 -309h-402z" />
<glyph unicode="&#x192;" horiz-adv-x="1034" d="M-29 -381l41 322q27 -7 54 -7q78 0 105.5 33.5t39.5 134.5l65 508h-104v314h147l23 161q12 87 44.5 154t77.5 109.5t104.5 69.5t119.5 37.5t129 10.5t141 -12l-40 -319q-28 4 -62 4q-52 0 -85.5 -23t-39.5 -67l-18 -125h143v-314h-188l-78 -641q-45 -362 -477 -362 q-94 0 -142 12z" />
<glyph unicode="&#x1fa;" horiz-adv-x="1437" d="M8 0l488 1409q-31 51 -31 113q0 100 73 163.5t181 63.5q110 0 183 -63t73 -162q0 -63 -33 -117l488 -1407h-410l-86 274h-430l-86 -274h-410zM539 1798l133 309h409l-225 -309h-317zM600 600h238l-119 412zM649 1524q0 -34 20 -55t52 -21t52 21t20 55q0 32 -20 52.5 t-52 20.5t-52 -20.5t-20 -52.5z" />
<glyph unicode="&#x1fb;" horiz-adv-x="1128" d="M33 336q0 163 116 261.5t312 98.5q115 0 192 -41v33q0 36 -35.5 61t-105.5 25q-126 0 -264 -61l-148 258q89 61 214 99t245 38q114 0 201 -24.5t141.5 -66t88.5 -102.5t47.5 -126.5t13.5 -145.5v-643h-357l-22 59q-83 -86 -256 -86q-75 0 -142.5 23t-122 67t-86.5 114.5 t-32 158.5zM326 1364q0 100 73 163.5t181 63.5q110 0 183 -63t73 -162q0 -100 -73 -163.5t-183 -63.5q-107 0 -180.5 63.5t-73.5 161.5zM385 1630l133 309h410l-226 -309h-317zM430 350q0 -40 34 -61t81 -21t80.5 21t33.5 61t-33.5 63t-82.5 23q-47 0 -80 -23t-33 -63z M510 1366q0 -34 20 -55t52 -21t51.5 21t19.5 55q0 33 -19.5 53.5t-51.5 20.5t-52 -21t-20 -53z" />
<glyph unicode="&#x1fc;" horiz-adv-x="1880" d="M16 0l781 1434h985v-357h-396v-176h334v-354h-334v-191h410v-356h-817v274h-377l-143 -274h-443zM748 600h231v463zM985 1489l133 309h410l-225 -309h-318z" />
<glyph unicode="&#x1fd;" horiz-adv-x="1763" d="M33 336q0 163 116 261.5t312 98.5q115 0 192 -41v33q0 36 -35.5 61t-105.5 25q-126 0 -264 -61l-148 258q89 61 214 99t245 38q206 0 332 -92q135 92 295 92q265 0 405 -156.5t140 -443.5q0 -22 -5 -72h-675q15 -63 64.5 -97t123.5 -34q66 0 120.5 32.5t74.5 63.5 l270 -188q-9 -19 -30 -45.5t-62 -61.5t-92.5 -64t-127.5 -49t-159 -20q-244 0 -406 146q-67 -71 -158.5 -108.5t-230.5 -37.5q-109 0 -200 41t-148 125.5t-57 196.5zM430 350q0 -40 34 -61t81 -21t80.5 21t33.5 61t-33.5 63t-82.5 23q-47 0 -80 -23t-33 -63zM678 1176 l133 309h410l-226 -309h-317zM1061 678h266q-4 43 -38.5 80t-94.5 37q-63 0 -96 -38t-37 -79z" />
<glyph unicode="&#x1fe;" horiz-adv-x="1617" d="M47 719q0 155 55 290.5t154 235.5t245 157.5t320 57.5q209 0 373 -82l94 115l205 -160l-88 -108q92 -98 141 -228t49 -278q0 -157 -55 -293.5t-154 -237t-245 -158t-320 -57.5q-204 0 -375 80l-90 -110l-204 159l86 105q-191 207 -191 512zM473 719q0 -103 37 -178 l430 526q-62 20 -119 20q-155 0 -251.5 -104.5t-96.5 -263.5zM633 1489l133 309h410l-226 -309h-317zM700 365q59 -19 121 -19q155 0 251.5 105t96.5 268q0 94 -36 174z" />
<glyph unicode="&#x1ff;" horiz-adv-x="1288" d="M41 541q0 161 79 291t216.5 203t306.5 73q146 0 277 -59l79 98l175 -133l-76 -94q147 -157 147 -379q0 -161 -79 -291.5t-216.5 -203.5t-306.5 -73q-135 0 -266 54l-86 -107l-174 133l78 99q-154 157 -154 389zM438 541q0 -32 11 -78l241 299q-24 6 -47 6 q-90 0 -147.5 -62.5t-57.5 -164.5zM446 1176l134 309h409l-225 -309h-318zM610 317q10 -2 33 -2q90 0 147.5 62t57.5 164q0 34 -6 61z" />
<glyph unicode="&#x218;" horiz-adv-x="1118" d="M25 322l340 167q32 -59 87 -100t109 -41q45 0 67.5 17.5t22.5 46.5q0 26 -25 49.5t-66 42t-93.5 43.5t-107 51t-107 66t-93.5 87t-66 116t-25 151q0 203 135.5 322.5t359.5 119.5q94 0 173.5 -26t130.5 -63t91.5 -88t60.5 -90.5t34 -80.5l-338 -151q-15 31 -25 47 t-29.5 39t-46 34t-61.5 11q-36 0 -57 -18t-21 -48q0 -28 25.5 -53.5t66.5 -44.5t94 -43.5t108 -48.5t108 -61.5t94 -81.5t66.5 -109t25.5 -142q0 -211 -135.5 -340t-378.5 -129q-96 0 -180.5 27t-140 66.5t-100 90t-67.5 90t-36 75.5zM352 -242q0 79 57.5 135t139.5 56 q92 0 149.5 -61.5t57.5 -163.5q0 -121 -67.5 -237t-174.5 -183l-127 141q88 60 111 129q-71 18 -108.5 69.5t-37.5 114.5z" />
<glyph unicode="&#x219;" horiz-adv-x="942" d="M20 145l218 217q110 -75 231 -75q37 0 55.5 11t18.5 28q0 18 -27 32t-70 26.5t-95 28.5t-104 43.5t-95 64.5t-70 98t-27 139q0 157 126 253.5t317 96.5q253 0 407 -178l-256 -203q-78 70 -160 70q-30 0 -45.5 -11t-15.5 -26q0 -21 27 -37.5t71 -30t96.5 -29.5t105 -42 t96.5 -61t71 -92t27 -130q0 -175 -123.5 -270t-327.5 -95q-143 0 -268 52t-183 120zM287 -242q0 80 57 135.5t139 55.5q92 0 149.5 -61.5t57.5 -163.5q0 -121 -67.5 -237.5t-173.5 -182.5l-127 141q87 59 110 129q-71 18 -108 69.5t-37 114.5z" />
<glyph unicode="&#x237;" d="M-88 -61q26 -2 51 -2q62 0 94.5 26.5t32.5 73.5v1044h397v-1077q0 -397 -491 -397q-44 0 -84 8v324z" />
<glyph unicode="&#x2c6;" horiz-adv-x="921" d="M59 1176l201 309h402l200 -309h-325l-76 124l-76 -124h-326z" />
<glyph unicode="&#x2c7;" horiz-adv-x="921" d="M59 1485h326l76 -125l76 125h325l-200 -309h-402z" />
<glyph unicode="&#x2d8;" horiz-adv-x="917" d="M96 1503h275q0 -43 20 -74.5t66 -31.5q48 0 68 31.5t20 74.5h274q0 -147 -96.5 -235t-265.5 -88q-168 0 -264.5 88t-96.5 235z" />
<glyph unicode="&#x2d9;" horiz-adv-x="917" d="M285 1341q0 72 51 123.5t123 51.5t123 -51.5t51 -123.5t-51 -123t-123 -51t-123 51t-51 123z" />
<glyph unicode="&#x2da;" horiz-adv-x="917" d="M203 1360q0 100 73 163.5t181 63.5q110 0 183 -63t73 -162q0 -100 -73 -163.5t-183 -63.5q-107 0 -180.5 63.5t-73.5 161.5zM387 1362q0 -34 20 -55t52 -21t51.5 21t19.5 55q0 33 -19.5 53.5t-51.5 20.5t-52 -21t-20 -53z" />
<glyph unicode="&#x2db;" horiz-adv-x="921" d="M254 -236q0 85 54.5 145.5t121.5 90.5h229q-26 -8 -53.5 -36.5t-27.5 -65.5q0 -38 25.5 -54t62.5 -16v-260q-70 -17 -144 -17q-51 0 -96 11t-85 34.5t-63.5 66.5t-23.5 101z" />
<glyph unicode="&#x2dc;" horiz-adv-x="919" d="M55 1174q0 146 70.5 235.5t189.5 89.5q63 0 146.5 -30.5t107.5 -30.5q58 0 58 63h237q0 -146 -70.5 -235.5t-189.5 -89.5q-63 0 -146.5 30.5t-107.5 30.5q-57 0 -57 -63h-238z" />
<glyph unicode="&#x2dd;" horiz-adv-x="1042" d="M35 1176l133 309h389l-225 -309h-297zM483 1176l133 309h390l-226 -309h-297z" />
<glyph unicode="&#x1e80;" horiz-adv-x="2101" d="M14 1434h437l190 -953l229 953h365l229 -953l191 953h436l-373 -1434h-461l-204 823l-205 -823h-463zM674 1798h409l134 -309h-318z" />
<glyph unicode="&#x1e81;" horiz-adv-x="1751" d="M14 1081h435l110 -659q2 9 133 659h369l131 -659l111 659h436l-293 -1081h-449l-123 545l-120 -545h-449zM506 1485h409l134 -309h-318z" />
<glyph unicode="&#x1e82;" horiz-adv-x="2097" d="M14 1434h437l190 -953l229 953h365l229 -953l191 953h436l-373 -1434h-461l-204 823l-205 -823h-463zM872 1489l134 309h409l-225 -309h-318z" />
<glyph unicode="&#x1e83;" horiz-adv-x="1751" d="M14 1081h435l110 -659q2 9 133 659h369l131 -659l111 659h436l-293 -1081h-449l-123 545l-120 -545h-449zM686 1176l133 309h410l-225 -309h-318z" />
<glyph unicode="&#x1e84;" horiz-adv-x="2103" d="M14 1434h437l190 -953l229 953h365l229 -953l191 953h436l-373 -1434h-461l-204 823l-205 -823h-463zM645 1663q0 72 49.5 122t126.5 50t127.5 -50t50.5 -122t-50.5 -122t-127.5 -50t-126.5 50t-49.5 122zM1108 1663q0 72 48 122t126 50q76 0 126 -50.5t50 -121.5 t-50 -121.5t-126 -50.5q-78 0 -126 50t-48 122z" />
<glyph unicode="&#x1e85;" horiz-adv-x="1751" d="M14 1081h435l110 -659q2 9 133 659h369l131 -659l111 659h436l-293 -1081h-449l-123 545l-120 -545h-449zM469 1337q0 72 49.5 122t126.5 50t127.5 -50t50.5 -122t-50.5 -122t-127.5 -50t-126.5 50t-49.5 122zM932 1337q0 72 48 122t126 50q76 0 126 -50.5t50 -121.5 t-50 -121.5t-126 -50.5q-78 0 -126 50t-48 122z" />
<glyph unicode="&#x1ef2;" horiz-adv-x="1318" d="M12 1434h457l190 -433l199 433h449l-445 -793v-641h-405v641zM317 1798h410l133 -309h-317z" />
<glyph unicode="&#x1ef3;" horiz-adv-x="1185" d="M12 1081h426l156 -559l166 559h414l-533 -1448h-373l146 408zM242 1485h409l133 -309h-317z" />
<glyph unicode="&#x2000;" horiz-adv-x="1053" />
<glyph unicode="&#x2001;" horiz-adv-x="2107" />
<glyph unicode="&#x2002;" horiz-adv-x="1053" />
<glyph unicode="&#x2003;" horiz-adv-x="2107" />
<glyph unicode="&#x2004;" horiz-adv-x="702" />
<glyph unicode="&#x2005;" horiz-adv-x="526" />
<glyph unicode="&#x2006;" horiz-adv-x="351" />
<glyph unicode="&#x2007;" horiz-adv-x="351" />
<glyph unicode="&#x2008;" horiz-adv-x="263" />
<glyph unicode="&#x2009;" horiz-adv-x="421" />
<glyph unicode="&#x200a;" horiz-adv-x="117" />
<glyph unicode="&#x2010;" horiz-adv-x="829" d="M100 455v348h627v-348h-627z" />
<glyph unicode="&#x2011;" horiz-adv-x="829" d="M100 455v348h627v-348h-627z" />
<glyph unicode="&#x2012;" horiz-adv-x="829" d="M100 455v348h627v-348h-627z" />
<glyph unicode="&#x2013;" horiz-adv-x="1443" d="M100 483v318h1243v-318h-1243z" />
<glyph unicode="&#x2014;" horiz-adv-x="2017" d="M102 483v318h1813v-318h-1813z" />
<glyph unicode="&#x2018;" horiz-adv-x="544" d="M39 975q0 167 80 316t215 237l151 -168q-51 -33 -98.5 -86t-60.5 -96q86 -21 133 -84t47 -138q0 -96 -67 -162.5t-165 -66.5q-101 0 -168 65t-67 183z" />
<glyph unicode="&#x2019;" horiz-adv-x="544" d="M39 1298q0 96 66.5 163t164.5 67q101 0 168.5 -65t67.5 -183q0 -167 -80 -316t-215 -237l-152 168q51 33 99 86t61 96q-86 21 -133 83.5t-47 137.5z" />
<glyph unicode="&#x201a;" horiz-adv-x="571" d="M53 199q0 96 67 162.5t165 66.5q101 0 168 -65t67 -183q0 -167 -80 -316t-215 -237l-151 168q51 33 98.5 86t60.5 96q-86 21 -133 84t-47 138z" />
<glyph unicode="&#x201c;" horiz-adv-x="1060" d="M39 975q0 167 80 316t215 237l151 -168q-51 -33 -98.5 -86t-60.5 -96q86 -21 133 -84t47 -138q0 -96 -67 -162.5t-165 -66.5q-101 0 -168 65t-67 183zM553 975q0 167 80 316t215 237l151 -168q-51 -33 -98.5 -86t-60.5 -96q86 -21 133 -84t47 -138q0 -96 -67 -162.5 t-165 -66.5q-101 0 -168 65t-67 183z" />
<glyph unicode="&#x201d;" horiz-adv-x="1060" d="M39 1298q0 96 66.5 163t164.5 67q101 0 168.5 -65t67.5 -183q0 -167 -80 -316t-215 -237l-152 168q51 33 99 86t61 96q-86 21 -133 83.5t-47 137.5zM553 1298q0 96 66.5 163t164.5 67q101 0 168.5 -65t67.5 -183q0 -167 -80 -316t-215 -237l-152 168q51 33 99 86t61 96 q-86 21 -133 83.5t-47 137.5z" />
<glyph unicode="&#x201e;" horiz-adv-x="1085" d="M53 199q0 96 67 162.5t165 66.5q101 0 168 -65t67 -183q0 -167 -80 -316t-215 -237l-151 168q51 33 98.5 86t60.5 96q-86 21 -133 84t-47 138zM567 199q0 96 67 162.5t165 66.5q101 0 168 -65t67 -183q0 -167 -80 -316t-215 -237l-151 168q51 33 99 86t61 96 q-86 21 -133.5 84t-47.5 138z" />
<glyph unicode="&#x2020;" horiz-adv-x="976" d="M43 778v338h250v318h391v-318h248v-338h-248v-778h-391v778h-250z" />
<glyph unicode="&#x2021;" horiz-adv-x="974" d="M43 317v336h250v125h-250v338h250v318h391v-318h248v-338h-248v-125h248v-336h-248v-317h-391v317h-250z" />
<glyph unicode="&#x2022;" horiz-adv-x="831" d="M63 635q0 148 101 250t252 102t251.5 -102t100.5 -250t-100.5 -250t-251.5 -102t-252 102t-101 250z" />
<glyph unicode="&#x202f;" horiz-adv-x="421" />
<glyph unicode="&#x2030;" horiz-adv-x="2623" d="M35 1096q0 153 110 258.5t273 105.5q169 0 279 -105t110 -259q0 -156 -109.5 -259.5t-277.5 -103.5t-276.5 103t-108.5 260zM145 0l1100 1434h379l-1100 -1434h-379zM326 1098q0 -41 27.5 -69t66.5 -28q44 0 70 28t26 69q0 37 -26.5 63.5t-67.5 26.5q-43 0 -69.5 -26.5 t-26.5 -63.5zM958 336q0 153 110 258.5t275 105.5q167 0 278.5 -105.5t111.5 -258.5q0 -154 -110.5 -258.5t-276.5 -104.5q-168 0 -278 103.5t-110 259.5zM1251 338q0 -40 26 -67t66 -27q43 0 71 27.5t28 66.5q0 38 -28 65t-68 27q-43 0 -69 -27t-26 -65zM1815 336 q0 153 110 258.5t275 105.5q167 0 278 -105t111 -259t-110.5 -258.5t-276.5 -104.5q-168 0 -277.5 103.5t-109.5 259.5zM2107 338q0 -40 27.5 -67t65.5 -27q44 0 71 27t27 67q0 39 -27.5 65.5t-68.5 26.5q-42 0 -68.5 -27t-26.5 -65z" />
<glyph unicode="&#x2039;" horiz-adv-x="692" d="M47 606l252 393h344l-252 -393l252 -393h-344z" />
<glyph unicode="&#x203a;" horiz-adv-x="692" d="M47 213l256 393l-256 393h346l252 -393l-252 -393h-346z" />
<glyph unicode="&#x2044;" horiz-adv-x="1036" d="M-25 -84l754 1602h334l-756 -1602h-332z" />
<glyph unicode="&#x205f;" horiz-adv-x="526" />
<glyph unicode="&#x20ac;" horiz-adv-x="1380" d="M45 440v244h96v74h-96v243h148q74 201 260 330t430 129q233 0 389 -94l-164 -326q-37 21 -103 38.5t-122 17.5q-74 0 -139 -24.5t-107 -70.5h358l-24 -243h-406q-4 -31 2 -74h394l-23 -244h-285q33 -45 109 -70.5t151 -25.5q123 0 220 59l149 -321q-44 -44 -145.5 -76.5 t-225.5 -32.5q-268 0 -456 125.5t-265 341.5h-145z" />
<glyph unicode="&#x2116;" horiz-adv-x="2318" d="M119 0v1434h416l460 -813v813h402v-1434h-406l-473 801v-801h-399zM1477 1087q0 156 107 264.5t269 108.5q164 0 271.5 -108.5t107.5 -264.5t-107 -261t-272 -105q-164 0 -270 105t-106 261zM1503 342v299h701v-299h-701zM1761 1090q0 -39 25 -67t67 -28q45 0 70 28 t25 67t-25 67.5t-70 28.5q-43 0 -67.5 -28.5t-24.5 -67.5z" />
<glyph unicode="&#x2122;" horiz-adv-x="1714" d="M72 1206v228h608v-228h-172v-512h-264v512h-172zM739 694v740h336l111 -365l114 365h340v-740h-254v338l-79 -258h-234l-80 258v-338h-254z" />
<glyph unicode="&#x2212;" horiz-adv-x="1150" d="M70 485v308h1009v-308h-1009z" />
<glyph unicode="&#x25fc;" horiz-adv-x="1085" d="M0 0v1085h1085v-1085h-1085z" />
<glyph unicode="&#xf6c3;" horiz-adv-x="727" d="M160 -242q0 80 57 135.5t139 55.5q92 0 149.5 -61.5t57.5 -163.5q0 -121 -67.5 -237.5t-173.5 -182.5l-127 141q87 59 110 129q-71 18 -108 69.5t-37 114.5z" />
<glyph horiz-adv-x="829" d="M100 537v348h627v-348h-627z" />
<glyph horiz-adv-x="1443" d="M100 549v317h1243v-317h-1243z" />
<glyph horiz-adv-x="2017" d="M102 549v317h1813v-317h-1813z" />
<glyph horiz-adv-x="1140" d="M47 731l252 393h344l-252 -393l252 -393h-344zM496 731l254 393h342l-252 -393l252 -393h-342z" />
<glyph horiz-adv-x="1140" d="M47 338l252 393l-252 393h342l254 -393l-254 -393h-342zM496 338l252 393l-252 393h344l252 -393l-252 -393h-344z" />
<glyph horiz-adv-x="692" d="M47 731l252 393h344l-252 -393l252 -393h-344z" />
<glyph horiz-adv-x="692" d="M47 338l252 393l-252 393h342l254 -393l-254 -393h-342z" />
<glyph horiz-adv-x="753" d="M55 162v1100q0 124 42.5 220.5t120 158.5t183 94t234.5 32v-335q-189 0 -189 -170v-1100q0 -170 189 -170v-336q-263 0 -421.5 130.5t-158.5 375.5z" />
<glyph horiz-adv-x="755" d="M119 -8q188 0 188 170v1100q0 170 -188 170v335q263 0 421 -130t158 -375v-1100q0 -245 -158 -375.5t-421 -130.5v336z" />
<glyph horiz-adv-x="753" d="M55 -344v2111h580v-335h-189v-1440h189v-336h-580z" />
<glyph horiz-adv-x="751" d="M119 -8h188v1440h-188v335h579v-2111h-579v336z" />
<glyph horiz-adv-x="897" d="M45 524v373q36 0 60.5 6.5t47.5 25t34.5 58t11.5 100.5v175q0 245 158 375t421 130v-335q-188 0 -188 -170v-269q0 -65 -23 -118.5t-58.5 -86t-70.5 -51.5t-67 -26q32 -7 67 -26t70.5 -51.5t58.5 -86.5t23 -119v-266q0 -170 188 -170v-336q-263 0 -421 130.5t-158 375.5 v172q0 61 -11.5 100.5t-34.5 58t-47.5 25t-60.5 6.5z" />
<glyph horiz-adv-x="645" d="M135 -436v2300h375v-2300h-375z" />
<glyph horiz-adv-x="897" d="M119 -8q188 0 188 170v266q0 65 23 119t58.5 86.5t70.5 51.5t67 26q-32 7 -67 26t-70.5 51.5t-58.5 86t-23 118.5v269q0 170 -188 170v335q263 0 421 -130t158 -375v-175q0 -61 11.5 -100.5t34.5 -58t47.5 -25t60.5 -6.5v-373q-36 0 -60.5 -6.5t-47.5 -25t-34.5 -58 t-11.5 -100.5v-172q0 -245 -158 -375.5t-421 -130.5v336z" />
<glyph horiz-adv-x="997" d="M20 -166l615 1757h342l-615 -1757h-342z" />
<glyph horiz-adv-x="997" d="M20 1591h342l615 -1757h-342z" />
<glyph horiz-adv-x="671" d="M104 1235q0 93 66.5 159t165.5 66t165 -66t66 -159q0 -96 -66 -162.5t-165 -66.5t-165.5 66.5t-66.5 162.5zM125 0l31 969h360l31 -969h-422z" />
<glyph horiz-adv-x="1036" d="M41 383q0 78 34 144t82 111.5t96 86.5t82 86.5t34 93.5v64h383v-90q0 -65 -23 -121.5t-57 -93.5t-74 -73t-74 -62t-57 -57t-23 -62q0 -37 27.5 -65t81.5 -28q90 0 131 103l311 -137q-14 -41 -34.5 -78.5t-59 -81.5t-88 -75.5t-124.5 -53t-165 -21.5q-210 0 -346.5 113 t-136.5 297zM332 1235q0 93 66 159t165 66t165.5 -66t66.5 -159q0 -96 -66.5 -162.5t-165.5 -66.5t-165 66.5t-66 162.5z" />
<glyph horiz-adv-x="569" d="M53 713q0 96 66.5 162.5t165.5 66.5t165 -66.5t66 -162.5q0 -93 -66 -159.5t-165 -66.5t-165.5 66.5t-66.5 159.5z" />
<glyph horiz-adv-x="831" d="M63 725q0 148 101 250t252 102t251.5 -102t100.5 -250t-100.5 -250t-251.5 -102t-252 102t-101 250z" />
<glyph horiz-adv-x="1245" d="M90 717q0 380 129 561.5t404 181.5q274 0 403 -181.5t129 -561.5q0 -381 -129 -562.5t-403 -181.5q-276 0 -404.5 181.5t-128.5 562.5zM502 717q0 -207 26.5 -289t94.5 -82t94 81t26 290t-25.5 289.5t-94.5 80.5q-68 0 -94.5 -81.5t-26.5 -288.5z" />
<glyph horiz-adv-x="1245" d="M106 1300l435 134h333v-1088h263v-346h-998v346h332v698l-272 -75z" />
<glyph horiz-adv-x="1245" d="M100 1077q13 52 37 101.5t67 102t98.5 91t137.5 63.5t178 25q146 0 261 -51t184.5 -155t69.5 -246q0 -67 -25 -130.5t-66 -114.5t-91.5 -98.5t-105 -90t-102 -80.5t-86.5 -77.5t-55 -74.5h543v-342h-1030v131q0 87 33.5 171.5t86.5 152t117.5 130.5t129 117.5t117.5 103 t86.5 96.5t33.5 89q0 46 -32 74.5t-87 28.5q-54 0 -91.5 -32.5t-55.5 -86.5z" />
<glyph horiz-adv-x="1245" d="M102 362l353 101q18 -55 56.5 -89t90.5 -34q58 0 92.5 34t34.5 85q0 46 -34.5 80t-100.5 34h-217v301l227 213h-438v347h907v-342l-233 -197q63 -15 115 -44.5t95 -78.5t67 -125t24 -172q0 -224 -148 -363t-379 -139q-98 0 -180.5 25.5t-137 65t-96.5 93t-64 103.5 t-34 102z" />
<glyph horiz-adv-x="1245" d="M51 307v281l518 846h488v-791h137v-336h-137v-307h-398v307h-608zM463 643h196v373z" />
<glyph horiz-adv-x="1245" d="M90 362l352 101q13 -59 55.5 -91t100.5 -32q60 0 102.5 39t42.5 104q0 60 -38.5 102t-110.5 42q-83 0 -133 -70l-328 61l29 816h897v-347h-535l-8 -159q81 33 172 33q94 0 179.5 -35.5t149 -97t101 -151.5t37.5 -194q0 -143 -70 -260t-192.5 -183.5t-271.5 -66.5 q-99 0 -183.5 25.5t-142 65t-101.5 92.5t-68 103.5t-36 102.5z" />
<glyph horiz-adv-x="1245" d="M88 645q0 86 8.5 166t29.5 163t53.5 153t83.5 132.5t117 106t156.5 69t198.5 25.5q204 0 357 -86l-152 -327q-78 38 -176 38q-58 0 -103 -15t-72 -40.5t-42.5 -53.5t-22.5 -61q93 48 203 48q90 0 166 -26.5t136 -81t94 -147t34 -214.5q0 -226 -145.5 -373.5 t-374.5 -147.5q-126 0 -221 31t-157 87t-100.5 141t-54.5 185t-16 228zM502 588q0 -40 1 -62t4.5 -55t12 -51.5t23 -37.5t38.5 -27.5t56 -8.5q63 0 92 35.5t29 95.5q0 68 -33.5 108t-95.5 40q-63 0 -127 -37z" />
<glyph horiz-adv-x="1245" d="M98 1087v347h1047v-279l-465 -1155h-440l452 1087h-594z" />
<glyph horiz-adv-x="1245" d="M80 440q0 103 43.5 187.5t114.5 130.5q-55 43 -90 114t-35 160q0 186 137 307t373 121t373 -121t137 -307q0 -89 -35 -160t-90 -114q71 -45 114 -130t43 -188q0 -218 -144.5 -342.5t-397.5 -124.5q-254 0 -398.5 124.5t-144.5 342.5zM496 449q0 -54 33.5 -83.5 t93.5 -29.5t93.5 29.5t33.5 83.5q0 46 -32 80t-95 34t-95 -34t-32 -80zM514 1006q0 -101 109 -101q108 0 108 101q0 45 -27 71.5t-81 26.5t-81.5 -26.5t-27.5 -71.5z" />
<glyph horiz-adv-x="1245" d="M88 940q0 226 145.5 373t374.5 147q126 0 221 -31t157 -87t100.5 -141t54.5 -185t16 -228q0 -86 -8.5 -166t-29.5 -163t-53.5 -153t-83.5 -132.5t-117 -106t-156.5 -69t-198.5 -25.5q-203 0 -356 86l151 328q80 -39 176 -39q58 0 103 15t72 40.5t42.5 53.5t22.5 61 q-91 -47 -203 -47q-90 0 -166 26.5t-136 81t-94 147t-34 214.5zM487 956q0 -67 33.5 -107t95.5 -40q63 0 127 37q0 40 -1 62t-4.5 55t-12 51t-23 37t-38.5 27.5t-56 8.5q-63 0 -92 -35.5t-29 -95.5z" />
</font>
</defs>
</svg>
